<svg width="20" height="20" viewBox="0 0 20 20" fill="none" xmlns="http://www.w3.org/2000/svg">
<g clip-path="url(#clip0_1_5492)">
<path d="M16.3043 7.33075H9.10159C8.21759 7.33075 7.50098 8.04737 7.50098 8.93136V16.1341C7.50098 17.0181 8.21759 17.7347 9.10159 17.7347H16.3043C17.1883 17.7347 17.9049 17.0181 17.9049 16.1341V8.93136C17.9049 8.04737 17.1883 7.33075 16.3043 7.33075Z" stroke="black" stroke-width="1.60061" stroke-linecap="round" stroke-linejoin="round"/>
<path d="M4.2996 12.1326H3.49929C3.07478 12.1326 2.66766 11.9639 2.36749 11.6638C2.06732 11.3636 1.89868 10.9565 1.89868 10.532V3.32922C1.89868 2.90471 2.06732 2.49759 2.36749 2.19741C2.66766 1.89724 3.07478 1.72861 3.49929 1.72861H10.702C11.1265 1.72861 11.5337 1.89724 11.8338 2.19741C12.134 2.49759 12.3026 2.90471 12.3026 3.32922V4.12952" stroke="black" stroke-width="1.60061" stroke-linecap="round" stroke-linejoin="round"/>
</g>
<defs>
<clipPath id="clip0_1_5492">
<rect width="19.2073" height="19.2073" fill="white" transform="translate(0.298096 0.127991)"/>
</clipPath>
</defs>
</svg>
