<svg width="113" height="116" viewBox="0 0 113 116" fill="none" xmlns="http://www.w3.org/2000/svg">
<path d="M29.0002 36.8891H33.2309C34.3944 36.8891 35.3463 35.9391 35.3463 34.778C35.3463 33.6169 34.3944 32.6669 33.2309 32.6669H29.0002C27.8367 32.6669 26.8848 33.6169 26.8848 34.778C26.8848 35.9391 27.8367 36.8891 29.0002 36.8891ZM33.2309 45.3335H29.0002C27.8367 45.3335 26.8848 46.2835 26.8848 47.4446C26.8848 48.6058 27.8367 49.5558 29.0002 49.5558H33.2309C34.3944 49.5558 35.3463 48.6058 35.3463 47.4446C35.3463 46.2835 34.3944 45.3335 33.2309 45.3335ZM33.2309 58.0002H29.0002C27.8367 58.0002 26.8848 58.9502 26.8848 60.1113C26.8848 61.2724 27.8367 62.2224 29.0002 62.2224H33.2309C34.3944 62.2224 35.3463 61.2724 35.3463 60.1113C35.3463 58.9502 34.3944 58.0002 33.2309 58.0002ZM33.2309 70.6669H29.0002C27.8367 70.6669 26.8848 71.6169 26.8848 72.778C26.8848 73.9391 27.8367 74.8891 29.0002 74.8891H33.2309C34.3944 74.8891 35.3463 73.9391 35.3463 72.778C35.3463 71.6169 34.3944 70.6669 33.2309 70.6669ZM33.2309 83.3335H29.0002C27.8367 83.3335 26.8848 84.2835 26.8848 85.4446C26.8848 86.6057 27.8367 87.5557 29.0002 87.5557H33.2309C34.3944 87.5557 35.3463 86.6057 35.3463 85.4446C35.3463 84.2835 34.3944 83.3335 33.2309 83.3335ZM45.9232 36.8891H79.7694C80.9328 36.8891 81.8848 35.9391 81.8848 34.778C81.8848 33.6169 80.9328 32.6669 79.7694 32.6669H45.9232C44.7598 32.6669 43.8078 33.6169 43.8078 34.778C43.8078 35.9391 44.7598 36.8891 45.9232 36.8891ZM45.9232 49.5558H75.5386C76.7021 49.5558 77.654 48.6058 77.654 47.4446C77.654 46.2835 76.7021 45.3335 75.5386 45.3335H45.9232C44.7598 45.3335 43.8078 46.2835 43.8078 47.4446C43.8078 48.6058 44.7598 49.5558 45.9232 49.5558ZM43.8078 60.1113C43.8078 61.2724 44.7598 62.2224 45.9232 62.2224H84.0001C85.1636 62.2224 86.1155 61.2724 86.1155 60.1113C86.1155 58.9502 85.1636 58.0002 84.0001 58.0002H45.9232C44.7598 58.0002 43.8078 58.9502 43.8078 60.1113ZM45.9232 74.8891H79.7694C80.9328 74.8891 81.8848 73.9391 81.8848 72.778C81.8848 71.6169 80.9328 70.6669 79.7694 70.6669H45.9232C44.7598 70.6669 43.8078 71.6169 43.8078 72.778C43.8078 73.9391 44.7598 74.8891 45.9232 74.8891ZM45.9232 87.5557H67.0771C68.2405 87.5557 69.1925 86.6057 69.1925 85.4446C69.1925 84.2835 68.2405 83.3335 67.0771 83.3335H45.9232C44.7598 83.3335 43.8078 84.2835 43.8078 85.4446C43.8078 86.6057 44.7598 87.5557 45.9232 87.5557Z" fill="#B3282D"/>
<path d="M97.7711 115H15.2288C7.65577 115 1.5 108.857 1.5 101.299V14.7012C1.5 7.14346 7.65577 1.00012 15.2288 1.00012H97.7711C105.344 1.00012 111.5 7.14346 111.5 14.7012V28.4446C111.5 29.6057 110.548 30.5557 109.385 30.5557C108.221 30.5557 107.269 29.6057 107.269 28.4446V14.7012C107.269 9.46568 103.017 5.22234 97.7711 5.22234H15.2288C9.98269 5.22234 5.73077 9.46568 5.73077 14.7012V101.299C5.73077 106.535 9.98269 110.778 15.2288 110.778H97.7711C103.017 110.778 107.269 106.535 107.269 101.299V41.1112C107.269 39.9501 108.221 39.0001 109.385 39.0001C110.548 39.0001 111.5 39.9501 111.5 41.1112V101.299C111.5 108.857 105.344 115 97.7711 115Z" fill="#98252B" stroke="#98252B" stroke-width="2"/>
</svg>
