<svg width="98" height="68" viewBox="0 0 98 68" fill="none" xmlns="http://www.w3.org/2000/svg">
<path d="M90.03 0.313477H7.97363C4.7117 0.313477 2.06738 2.96101 2.06738 6.2269V61.7725C2.06738 65.0384 4.7117 67.6859 7.97363 67.6859H90.03C93.2919 67.6859 95.9363 65.0384 95.9363 61.7725V6.2269C95.9363 2.96101 93.2919 0.313477 90.03 0.313477Z" fill="url(#paint0_linear_765_27807)"/>
<path d="M90.03 0.313477H7.97363C4.7117 0.313477 2.06738 2.96101 2.06738 6.2269V61.7725C2.06738 65.0384 4.7117 67.6859 7.97363 67.6859H90.03C93.2919 67.6859 95.9363 65.0384 95.9363 61.7725V6.2269C95.9363 2.96101 93.2919 0.313477 90.03 0.313477Z" fill="url(#paint1_linear_765_27807)"/>
<path d="M49.0001 0.313437V67.6893H7.97363C6.4072 67.6893 4.90492 67.0663 3.79728 65.9573C2.68965 64.8483 2.06738 63.3442 2.06738 61.7758V6.22348C2.06738 2.95927 4.71001 0.310059 7.97363 0.310059L49.0001 0.313437Z" fill="url(#paint2_linear_765_27807)"/>
<path d="M49.0001 0.313437V67.6893H7.97363C6.4072 67.6893 4.90492 67.0663 3.79728 65.9573C2.68965 64.8483 2.06738 63.3442 2.06738 61.7758V6.22348C2.06738 2.95927 4.71001 0.310059 7.97363 0.310059L49.0001 0.313437Z" fill="url(#paint3_radial_765_27807)"/>
<path d="M49 0.313437V67.6893H90.0265C91.5929 67.6893 93.0952 67.0663 94.2028 65.9573C95.3105 64.8483 95.9327 63.3442 95.9327 61.7758V6.22348C95.9327 4.65514 95.3105 3.15104 94.2028 2.04206C93.0952 0.933077 91.5929 0.310059 90.0265 0.310059L49 0.313437Z" fill="url(#paint4_linear_765_27807)"/>
<path d="M49 0.313437V67.6893H90.0265C91.5929 67.6893 93.0952 67.0663 94.2028 65.9573C95.3105 64.8483 95.9327 63.3442 95.9327 61.7758V6.22348C95.9327 4.65514 95.3105 3.15104 94.2028 2.04206C93.0952 0.933077 91.5929 0.310059 90.0265 0.310059L49 0.313437Z" fill="url(#paint5_linear_765_27807)"/>
<path d="M49 0.313437V67.6893H90.0265C91.5929 67.6893 93.0952 67.0663 94.2028 65.9573C95.3105 64.8483 95.9327 63.3442 95.9327 61.7758V6.22348C95.9327 4.65514 95.3105 3.15104 94.2028 2.04206C93.0952 0.933077 91.5929 0.310059 90.0265 0.310059L49 0.313437Z" fill="url(#paint6_linear_765_27807)"/>
<path d="M49 0.313437V67.6893H90.0265C91.5929 67.6893 93.0952 67.0663 94.2028 65.9573C95.3105 64.8483 95.9327 63.3442 95.9327 61.7758V6.22348C95.9327 4.65514 95.3105 3.15104 94.2028 2.04206C93.0952 0.933077 91.5929 0.310059 90.0265 0.310059L49 0.313437Z" fill="url(#paint7_linear_765_27807)"/>
<g filter="url(#filter0_d_765_27807)">
<path d="M2.06783 61.7726C2.06724 61.3359 2.17789 60.9062 2.3893 60.5243C2.60072 60.1423 2.90593 59.8207 3.27608 59.5897L48.2581 31.4418C48.4726 31.3075 48.7206 31.2363 48.9736 31.2363C49.2266 31.2363 49.4745 31.3075 49.6891 31.4418L94.823 59.762C95.5148 60.1945 95.9367 60.9548 95.9367 61.7726C95.9367 63.3409 95.3144 64.845 94.2068 65.954C93.0992 67.063 91.5969 67.686 90.0305 67.686H7.9707C6.40427 67.686 4.90199 67.063 3.79435 65.954C2.68672 64.845 2.06445 63.3409 2.06445 61.7726H2.06783Z" fill="url(#paint8_linear_765_27807)"/>
</g>
<path d="M2.06783 61.7726C2.06724 61.3359 2.17789 60.9062 2.3893 60.5243C2.60072 60.1423 2.90593 59.8207 3.27608 59.5897L48.2581 31.4418C48.4726 31.3075 48.7206 31.2363 48.9736 31.2363C49.2266 31.2363 49.4745 31.3075 49.6891 31.4418L94.823 59.762C95.5148 60.1945 95.9367 60.9548 95.9367 61.7726C95.9367 63.3409 95.3144 64.845 94.2068 65.954C93.0992 67.063 91.5969 67.686 90.0305 67.686H7.9707C6.40427 67.686 4.90199 67.063 3.79435 65.954C2.68672 64.845 2.06445 63.3409 2.06445 61.7726H2.06783Z" fill="url(#paint9_linear_765_27807)"/>
<path d="M2.06783 61.7726C2.06724 61.3359 2.17789 60.9062 2.3893 60.5243C2.60072 60.1423 2.90593 59.8207 3.27608 59.5897L48.2581 31.4418C48.4726 31.3075 48.7206 31.2363 48.9736 31.2363C49.2266 31.2363 49.4745 31.3075 49.6891 31.4418L94.823 59.762C95.5148 60.1945 95.9367 60.9548 95.9367 61.7726C95.9367 63.3409 95.3144 64.845 94.2068 65.954C93.0992 67.063 91.5969 67.686 90.0305 67.686H7.9707C6.40427 67.686 4.90199 67.063 3.79435 65.954C2.68672 64.845 2.06445 63.3409 2.06445 61.7726H2.06783Z" fill="url(#paint10_linear_765_27807)"/>
<g filter="url(#filter1_dd_765_27807)">
<path d="M2.06783 6.2269C2.06724 6.66359 2.17789 7.09322 2.3893 7.47518C2.60072 7.85714 2.90593 8.17881 3.27608 8.4098L48.2581 36.5577C48.4726 36.6919 48.7206 36.7631 48.9736 36.7631C49.2266 36.7631 49.4745 36.6919 49.6891 36.5577L94.823 8.23746C95.1636 8.02434 95.4445 7.72801 95.6394 7.3763C95.8342 7.0246 95.9365 6.62907 95.9367 6.2269C95.9367 4.65856 95.3144 3.15446 94.2068 2.04548C93.0992 0.936496 91.5969 0.313477 90.0305 0.313477H7.9707C6.40427 0.313477 4.90199 0.936496 3.79435 2.04548C2.68672 3.15446 2.06445 4.65856 2.06445 6.2269H2.06783Z" fill="url(#paint11_linear_765_27807)"/>
<path d="M2.06783 6.2269C2.06724 6.66359 2.17789 7.09322 2.3893 7.47518C2.60072 7.85714 2.90593 8.17881 3.27608 8.4098L48.2581 36.5577C48.4726 36.6919 48.7206 36.7631 48.9736 36.7631C49.2266 36.7631 49.4745 36.6919 49.6891 36.5577L94.823 8.23746C95.1636 8.02434 95.4445 7.72801 95.6394 7.3763C95.8342 7.0246 95.9365 6.62907 95.9367 6.2269C95.9367 4.65856 95.3144 3.15446 94.2068 2.04548C93.0992 0.936496 91.5969 0.313477 90.0305 0.313477H7.9707C6.40427 0.313477 4.90199 0.936496 3.79435 2.04548C2.68672 3.15446 2.06445 4.65856 2.06445 6.2269H2.06783Z" fill="url(#paint12_linear_765_27807)"/>
<path d="M2.06783 6.2269C2.06724 6.66359 2.17789 7.09322 2.3893 7.47518C2.60072 7.85714 2.90593 8.17881 3.27608 8.4098L48.2581 36.5577C48.4726 36.6919 48.7206 36.7631 48.9736 36.7631C49.2266 36.7631 49.4745 36.6919 49.6891 36.5577L94.823 8.23746C95.1636 8.02434 95.4445 7.72801 95.6394 7.3763C95.8342 7.0246 95.9365 6.62907 95.9367 6.2269C95.9367 4.65856 95.3144 3.15446 94.2068 2.04548C93.0992 0.936496 91.5969 0.313477 90.0305 0.313477H7.9707C6.40427 0.313477 4.90199 0.936496 3.79435 2.04548C2.68672 3.15446 2.06445 4.65856 2.06445 6.2269H2.06783Z" fill="url(#paint13_linear_765_27807)"/>
<path d="M2.06783 6.2269C2.06724 6.66359 2.17789 7.09322 2.3893 7.47518C2.60072 7.85714 2.90593 8.17881 3.27608 8.4098L48.2581 36.5577C48.4726 36.6919 48.7206 36.7631 48.9736 36.7631C49.2266 36.7631 49.4745 36.6919 49.6891 36.5577L94.823 8.23746C95.1636 8.02434 95.4445 7.72801 95.6394 7.3763C95.8342 7.0246 95.9365 6.62907 95.9367 6.2269C95.9367 4.65856 95.3144 3.15446 94.2068 2.04548C93.0992 0.936496 91.5969 0.313477 90.0305 0.313477H7.9707C6.40427 0.313477 4.90199 0.936496 3.79435 2.04548C2.68672 3.15446 2.06445 4.65856 2.06445 6.2269H2.06783Z" fill="url(#paint14_radial_765_27807)"/>
</g>
<g filter="url(#filter2_f_765_27807)">
<path d="M46.7363 59.2483C53.0021 59.2483 59.0112 56.7562 63.4417 52.3203C67.8723 47.8844 70.3613 41.868 70.3613 35.5946C70.3613 29.3213 67.8723 23.3048 63.4417 18.8689C59.0112 14.433 53.0021 11.9409 46.7363 11.9409C40.4706 11.9409 34.4615 14.433 30.0309 18.8689C25.6004 23.3048 23.1113 29.3213 23.1113 35.5946C23.1113 41.868 25.6004 47.8844 30.0309 52.3203C34.4615 56.7562 40.4706 59.2483 46.7363 59.2483Z" fill="#C2A5D0"/>
</g>
<g filter="url(#filter3_ddd_765_27807)">
<path d="M48.8418 57.6536C55.1075 57.6536 61.1166 55.1615 65.5472 50.7256C69.9777 46.2896 72.4668 40.2732 72.4668 33.9999C72.4668 27.7265 69.9777 21.7101 65.5472 17.2742C61.1166 12.8383 55.1075 10.3462 48.8418 10.3462C42.5761 10.3462 36.5669 12.8383 32.1364 17.2742C27.7059 21.7101 25.2168 27.7265 25.2168 33.9999C25.2168 40.2732 27.7059 46.2896 32.1364 50.7256C36.5669 55.1615 42.5761 57.6536 48.8418 57.6536Z" fill="#98252B"/>
</g>
<g filter="url(#filter4_ddd_765_27807)">
<path d="M48.8421 18.7936C44.7584 18.726 40.8771 20.2804 37.9746 23.1864C35.0384 26.0587 33.4521 29.9109 33.4521 33.9996C33.4521 42.3797 40.2696 49.2055 48.6396 49.2055C49.0603 49.2055 49.4638 49.0382 49.7613 48.7403C50.0588 48.4425 50.2259 48.0385 50.2259 47.6173C50.2259 47.1961 50.0588 46.7922 49.7613 46.4943C49.4638 46.1965 49.0603 46.0292 48.6396 46.0292C42.0246 46.0292 36.6247 40.6226 36.6247 33.9996C36.6247 30.7556 37.9071 27.7144 40.2021 25.4504C42.4971 23.1864 45.5684 21.97 48.8084 21.97C55.3221 22.0713 60.6546 27.5455 60.6546 34.2023V36.9394C60.6546 37.5398 60.4164 38.1157 59.9923 38.5403C59.5683 38.9648 58.9931 39.2034 58.3934 39.2034C57.7937 39.2034 57.2185 38.9648 56.7945 38.5403C56.3704 38.1157 56.1322 37.5398 56.1322 36.9394V26.5318C56.1322 26.1105 55.965 25.7066 55.6675 25.4087C55.3701 25.1109 54.9666 24.9436 54.5459 24.9436C53.6684 24.9436 52.8921 25.6532 52.8921 26.5318V26.8359C51.4071 25.6532 49.5509 24.9098 47.4922 24.9098C42.7672 24.9098 38.9196 28.762 38.9196 33.4927C38.9196 38.2234 42.7672 42.0756 47.4922 42.0756C49.8547 42.0756 52.0147 41.0957 53.5672 39.5413C54.5122 41.2308 56.3009 42.3797 58.3597 42.3797C61.3634 42.3797 63.8271 39.913 63.8271 36.9056V34.1685C63.8271 25.8221 57.1109 18.895 48.8421 18.7936ZM47.5259 38.933C44.5559 38.933 42.1259 36.5001 42.1259 33.5265C42.1259 30.5529 44.5559 28.1199 47.5259 28.1199C50.4959 28.1199 52.9259 30.5529 52.9259 33.5265C52.9259 36.5001 50.4959 38.933 47.5259 38.933Z" fill="#E6E0ED"/>
</g>
<defs>
<filter id="filter0_d_765_27807" x="0.564453" y="28.9863" width="96.8721" height="39.4497" filterUnits="userSpaceOnUse" color-interpolation-filters="sRGB">
<feFlood flood-opacity="0" result="BackgroundImageFix"/>
<feColorMatrix in="SourceAlpha" type="matrix" values="0 0 0 0 0 0 0 0 0 0 0 0 0 0 0 0 0 0 127 0" result="hardAlpha"/>
<feOffset dy="-0.75"/>
<feGaussianBlur stdDeviation="0.75"/>
<feComposite in2="hardAlpha" operator="out"/>
<feColorMatrix type="matrix" values="0 0 0 0 0.819608 0 0 0 0 0.654902 0 0 0 0 0.933333 0 0 0 1 0"/>
<feBlend mode="normal" in2="BackgroundImageFix" result="effect1_dropShadow_765_27807"/>
<feBlend mode="normal" in="SourceGraphic" in2="effect1_dropShadow_765_27807" result="shape"/>
</filter>
<filter id="filter1_dd_765_27807" x="1.46445" y="-0.286523" width="95.0721" height="37.8997" filterUnits="userSpaceOnUse" color-interpolation-filters="sRGB">
<feFlood flood-opacity="0" result="BackgroundImageFix"/>
<feColorMatrix in="SourceAlpha" type="matrix" values="0 0 0 0 0 0 0 0 0 0 0 0 0 0 0 0 0 0 127 0" result="hardAlpha"/>
<feOffset dy="-0.15"/>
<feGaussianBlur stdDeviation="0.225"/>
<feComposite in2="hardAlpha" operator="out"/>
<feColorMatrix type="matrix" values="0 0 0 0 0.827451 0 0 0 0 0.686275 0 0 0 0 0.913725 0 0 0 1 0"/>
<feBlend mode="normal" in2="BackgroundImageFix" result="effect1_dropShadow_765_27807"/>
<feColorMatrix in="SourceAlpha" type="matrix" values="0 0 0 0 0 0 0 0 0 0 0 0 0 0 0 0 0 0 127 0" result="hardAlpha"/>
<feOffset dy="0.25"/>
<feGaussianBlur stdDeviation="0.3"/>
<feComposite in2="hardAlpha" operator="out"/>
<feColorMatrix type="matrix" values="0 0 0 0 0.870588 0 0 0 0 0.858824 0 0 0 0 0.854902 0 0 0 1 0"/>
<feBlend mode="normal" in2="effect1_dropShadow_765_27807" result="effect2_dropShadow_765_27807"/>
<feBlend mode="normal" in="SourceGraphic" in2="effect2_dropShadow_765_27807" result="shape"/>
</filter>
<filter id="filter2_f_765_27807" x="21.6113" y="10.4409" width="50.25" height="50.3076" filterUnits="userSpaceOnUse" color-interpolation-filters="sRGB">
<feFlood flood-opacity="0" result="BackgroundImageFix"/>
<feBlend mode="normal" in="SourceGraphic" in2="BackgroundImageFix" result="shape"/>
<feGaussianBlur stdDeviation="0.75" result="effect1_foregroundBlur_765_27807"/>
</filter>
<filter id="filter3_ddd_765_27807" x="24.8168" y="9.84619" width="48.15" height="48.3076" filterUnits="userSpaceOnUse" color-interpolation-filters="sRGB">
<feFlood flood-opacity="0" result="BackgroundImageFix"/>
<feColorMatrix in="SourceAlpha" type="matrix" values="0 0 0 0 0 0 0 0 0 0 0 0 0 0 0 0 0 0 127 0" result="hardAlpha"/>
<feOffset dx="0.25"/>
<feGaussianBlur stdDeviation="0.125"/>
<feComposite in2="hardAlpha" operator="out"/>
<feColorMatrix type="matrix" values="0 0 0 0 0.192157 0 0 0 0 0.376471 0 0 0 0 0.721569 0 0 0 1 0"/>
<feBlend mode="normal" in2="BackgroundImageFix" result="effect1_dropShadow_765_27807"/>
<feColorMatrix in="SourceAlpha" type="matrix" values="0 0 0 0 0 0 0 0 0 0 0 0 0 0 0 0 0 0 127 0" result="hardAlpha"/>
<feOffset dy="-0.25"/>
<feGaussianBlur stdDeviation="0.125"/>
<feComposite in2="hardAlpha" operator="out"/>
<feColorMatrix type="matrix" values="0 0 0 0 0.32549 0 0 0 0 0.341176 0 0 0 0 0.819608 0 0 0 1 0"/>
<feBlend mode="normal" in2="effect1_dropShadow_765_27807" result="effect2_dropShadow_765_27807"/>
<feColorMatrix in="SourceAlpha" type="matrix" values="0 0 0 0 0 0 0 0 0 0 0 0 0 0 0 0 0 0 127 0" result="hardAlpha"/>
<feOffset dx="-0.15" dy="0.25"/>
<feGaussianBlur stdDeviation="0.125"/>
<feComposite in2="hardAlpha" operator="out"/>
<feColorMatrix type="matrix" values="0 0 0 0 0.317647 0 0 0 0 0.596078 0 0 0 0 0.882353 0 0 0 1 0"/>
<feBlend mode="normal" in2="effect2_dropShadow_765_27807" result="effect3_dropShadow_765_27807"/>
<feBlend mode="normal" in="SourceGraphic" in2="effect3_dropShadow_765_27807" result="shape"/>
</filter>
<filter id="filter4_ddd_765_27807" x="33.0021" y="18.1415" width="31.225" height="31.5141" filterUnits="userSpaceOnUse" color-interpolation-filters="sRGB">
<feFlood flood-opacity="0" result="BackgroundImageFix"/>
<feColorMatrix in="SourceAlpha" type="matrix" values="0 0 0 0 0 0 0 0 0 0 0 0 0 0 0 0 0 0 127 0" result="hardAlpha"/>
<feOffset dx="-0.15" dy="0.15"/>
<feGaussianBlur stdDeviation="0.125"/>
<feComposite in2="hardAlpha" operator="out"/>
<feColorMatrix type="matrix" values="0 0 0 0 0.152941 0 0 0 0 0.341176 0 0 0 0 0.768627 0 0 0 1 0"/>
<feBlend mode="normal" in2="BackgroundImageFix" result="effect1_dropShadow_765_27807"/>
<feColorMatrix in="SourceAlpha" type="matrix" values="0 0 0 0 0 0 0 0 0 0 0 0 0 0 0 0 0 0 127 0" result="hardAlpha"/>
<feOffset dy="-0.25"/>
<feGaussianBlur stdDeviation="0.2"/>
<feComposite in2="hardAlpha" operator="out"/>
<feColorMatrix type="matrix" values="0 0 0 0 0.803922 0 0 0 0 0.713726 0 0 0 0 0.921569 0 0 0 1 0"/>
<feBlend mode="normal" in2="effect1_dropShadow_765_27807" result="effect2_dropShadow_765_27807"/>
<feColorMatrix in="SourceAlpha" type="matrix" values="0 0 0 0 0 0 0 0 0 0 0 0 0 0 0 0 0 0 127 0" result="hardAlpha"/>
<feOffset dx="-0.15" dy="0.15"/>
<feGaussianBlur stdDeviation="0.15"/>
<feComposite in2="hardAlpha" operator="out"/>
<feColorMatrix type="matrix" values="0 0 0 0 0.917647 0 0 0 0 0.890196 0 0 0 0 0.952941 0 0 0 1 0"/>
<feBlend mode="normal" in2="effect2_dropShadow_765_27807" result="effect3_dropShadow_765_27807"/>
<feBlend mode="normal" in="SourceGraphic" in2="effect3_dropShadow_765_27807" result="shape"/>
</filter>
<linearGradient id="paint0_linear_765_27807" x1="8.81738" y1="37.9059" x2="95.9329" y2="37.2756" gradientUnits="userSpaceOnUse">
<stop stop-color="#DFD0E6"/>
<stop offset="1" stop-color="#EEE5F8"/>
</linearGradient>
<linearGradient id="paint1_linear_765_27807" x1="2.06738" y1="37.6998" x2="12.3206" y2="37.6998" gradientUnits="userSpaceOnUse">
<stop stop-color="#D6BABD"/>
<stop offset="1" stop-color="#DCC9DD" stop-opacity="0"/>
</linearGradient>
<linearGradient id="paint2_linear_765_27807" x1="31.575" y1="44.0457" x2="28.9988" y2="40.0376" gradientUnits="userSpaceOnUse">
<stop offset="0.114" stop-color="#DAC3DF"/>
<stop offset="1" stop-color="#DAC3DF" stop-opacity="0"/>
</linearGradient>
<radialGradient id="paint3_radial_765_27807" cx="0" cy="0" r="1" gradientUnits="userSpaceOnUse" gradientTransform="translate(35.9146 25.1466) rotate(123.658) scale(9.20538 64.6199)">
<stop offset="0.342" stop-color="#C8A6D7"/>
<stop offset="1" stop-color="#D1BBDD" stop-opacity="0"/>
</radialGradient>
<linearGradient id="paint4_linear_765_27807" x1="66.1923" y1="45.0865" x2="68.9987" y2="40.0376" gradientUnits="userSpaceOnUse">
<stop offset="0.114" stop-color="#F6EFFE"/>
<stop offset="1" stop-color="#F3EAFD" stop-opacity="0"/>
</linearGradient>
<linearGradient id="paint5_linear_765_27807" x1="63.0265" y1="27.032" x2="66.6198" y2="31.8836" gradientUnits="userSpaceOnUse">
<stop stop-color="#E3CDF7"/>
<stop offset="1" stop-color="#E9D9F8" stop-opacity="0"/>
</linearGradient>
<linearGradient id="paint6_linear_765_27807" x1="96.5672" y1="46.0394" x2="84.0156" y2="46.0394" gradientUnits="userSpaceOnUse">
<stop stop-color="#F7F3FB"/>
<stop offset="1" stop-color="#F0E9F8" stop-opacity="0"/>
</linearGradient>
<linearGradient id="paint7_linear_765_27807" x1="96.5672" y1="46.0394" x2="92.4295" y2="46.0394" gradientUnits="userSpaceOnUse">
<stop offset="0.199" stop-color="#EBE9ED"/>
<stop offset="1" stop-color="#EBE9ED" stop-opacity="0"/>
</linearGradient>
<linearGradient id="paint8_linear_765_27807" x1="49.0006" y1="73.5994" x2="49.0006" y2="37.0612" gradientUnits="userSpaceOnUse">
<stop stop-color="#DDC5F1"/>
<stop offset="1" stop-color="#E6DAF1"/>
</linearGradient>
<linearGradient id="paint9_linear_765_27807" x1="20.2658" y1="47.8743" x2="21.8074" y2="50.1873" gradientUnits="userSpaceOnUse">
<stop offset="0.073" stop-color="#DDC2C8"/>
<stop offset="1" stop-color="#DFCDDA" stop-opacity="0"/>
</linearGradient>
<linearGradient id="paint10_linear_765_27807" x1="71.2115" y1="44.6743" x2="70.2412" y2="46.1837" gradientUnits="userSpaceOnUse">
<stop offset="0.14" stop-color="#F8F3FD"/>
<stop offset="1" stop-color="#F1EAF9" stop-opacity="0"/>
</linearGradient>
<linearGradient id="paint11_linear_765_27807" x1="49.0006" y1="0.313477" x2="49.0006" y2="36.7672" gradientUnits="userSpaceOnUse">
<stop stop-color="#E9E4E9"/>
<stop offset="1" stop-color="#E7DCF0"/>
</linearGradient>
<linearGradient id="paint12_linear_765_27807" x1="28.1093" y1="23.4502" x2="40.3292" y2="1.54932" gradientUnits="userSpaceOnUse">
<stop stop-color="#E1D5E7"/>
<stop offset="1" stop-color="#E1D5E7" stop-opacity="0"/>
</linearGradient>
<linearGradient id="paint13_linear_765_27807" x1="2.06783" y1="5.84844" x2="11.9633" y2="5.84844" gradientUnits="userSpaceOnUse">
<stop stop-color="#E1C1BC"/>
<stop offset="1" stop-color="#E9D1CD" stop-opacity="0"/>
</linearGradient>
<radialGradient id="paint14_radial_765_27807" cx="0" cy="0" r="1" gradientUnits="userSpaceOnUse" gradientTransform="translate(87.6688 14.1098) rotate(-138.198) scale(20.6967 91.7198)">
<stop stop-color="#FBF9FE"/>
<stop offset="1" stop-color="#F0ECF1" stop-opacity="0"/>
</radialGradient>
</defs>
</svg>
