<svg width="14" height="14" viewBox="0 0 14 14" fill="none" xmlns="http://www.w3.org/2000/svg">
<g clip-path="url(#clip0_1_4841)">
<path d="M5.92089 3.38711C6.03261 3.49664 6.14678 3.60693 6.26674 3.72282C6.33511 3.78887 6.40536 3.85673 6.4781 3.9273L6.92487 4.36074L7.35562 3.91138C7.43822 3.82521 7.50923 3.74816 7.57493 3.67688C7.69721 3.54421 7.80106 3.43154 7.92691 3.31724L7.92714 3.31703C8.90498 2.42795 10.1566 2.29458 11.0928 2.85753L11.4107 2.32911L11.0929 2.8576C12.0834 3.45365 12.611 4.73644 12.3037 5.97315L12.3037 5.97331C12.0081 7.16439 11.2834 8.13278 10.3844 9.10534L10.3844 9.10535C9.34958 10.2248 8.15264 11.1755 6.88869 12.0988M5.92089 3.38711L6.35408 2.94529L5.92102 3.38723C5.92098 3.38719 5.92094 3.38715 5.92089 3.38711ZM5.92089 3.38711C5.06051 2.54409 3.88618 2.31399 2.95538 2.71589L2.95527 2.71593C2.02035 3.11939 1.35995 4.1537 1.383 5.32074L1.383 5.32079C1.40042 6.20524 1.77058 6.99665 2.32613 7.79481L2.32632 7.79509C3.5231 9.51652 5.14281 10.8189 6.88869 12.0988M6.88869 12.0988C6.83341 12.1391 6.77801 12.1795 6.72248 12.2197C6.76511 12.1888 6.79702 12.1775 6.80394 12.1751C6.81439 12.1715 6.82173 12.17 6.82849 12.1691C6.83364 12.1684 6.85409 12.1658 6.88794 12.1698C6.91156 12.1725 7.00637 12.185 7.11034 12.2607L6.93095 12.5071L6.93094 12.5071L6.74712 12.7596L6.93096 12.5072L6.93098 12.5071L7.1104 12.2607C7.03629 12.2068 6.96238 12.1528 6.88869 12.0988Z" fill="white" stroke="white" stroke-width="1.2375"/>
</g>
<defs>
<clipPath id="clip0_1_4841">
<rect width="13.0625" height="13.0625" fill="white" transform="translate(0.219727 0.8125)"/>
</clipPath>
</defs>
</svg>
