<svg width="32" height="32" viewBox="0 0 32 32" fill="none" xmlns="http://www.w3.org/2000/svg">
<path d="M5.33325 5.3335L26.6666 26.6668" stroke="white" stroke-width="2" stroke-linecap="round"/>
<path fill-rule="evenodd" clip-rule="evenodd" d="M8.83542 7.58286C5.95166 9.25047 3.70319 11.8938 2.54072 15.0604C2.31813 15.6668 2.31813 16.3329 2.54072 16.9392C4.55274 22.4202 9.81812 26.3332 15.9999 26.3332C19.258 26.3332 22.2615 25.2463 24.6683 23.4158L23.239 21.9864C21.2056 23.4628 18.7041 24.3332 15.9999 24.3332C10.6836 24.3332 6.15051 20.969 4.41822 16.25C4.35897 16.0886 4.35897 15.9111 4.41822 15.7497C5.48163 12.8528 7.60051 10.4665 10.3081 9.05555L8.83542 7.58286ZM13.1462 11.8937C11.8489 12.7969 10.9999 14.2992 10.9999 15.9998C10.9999 18.7613 13.2385 20.9998 15.9999 20.9998C17.7005 20.9998 19.2028 20.1508 20.1061 18.8536L18.6534 17.4008C18.1502 18.3519 17.1508 18.9998 15.9999 18.9998C14.3431 18.9998 12.9999 17.6567 12.9999 15.9998C12.9999 14.849 13.6479 13.8496 14.5989 13.3464L13.1462 11.8937ZM17.4588 13.3778L15.1524 11.0714C15.4279 11.0243 15.711 10.9998 15.9999 10.9998C18.7614 10.9998 20.9999 13.2384 20.9999 15.9998C20.9999 16.2887 20.9754 16.5719 20.9284 16.8474L18.622 14.541C18.3501 14.0535 17.9463 13.6496 17.4588 13.3778ZM24.7614 20.6804C25.9952 19.4352 26.9656 17.9283 27.5817 16.25C27.6409 16.0886 27.6409 15.9111 27.5817 15.7497C25.8494 11.0307 21.3163 7.6665 15.9999 7.6665C14.7144 7.6665 13.4747 7.86322 12.3092 8.22823L10.7424 6.66143C12.3701 6.01931 14.1437 5.6665 15.9999 5.6665C22.1818 5.6665 27.4472 9.57949 29.4592 15.0604C29.6818 15.6668 29.6818 16.3329 29.4592 16.9392C28.7423 18.892 27.6125 20.6457 26.1754 22.0944L24.7614 20.6804Z" fill="white"/>
</svg>
