<svg width="174" height="52" viewBox="0 0 174 52" fill="none" xmlns="http://www.w3.org/2000/svg">
<path d="M57.2074 6.15423C55.9954 4.39245 53.9921 2.92593 51.2476 1.78422C48.5331 0.662187 44.9572 0.0618019 40.6 0.0027477C36.7637 -0.0366218 33.348 0.347231 30.4533 1.14446C27.5485 1.94169 25.0444 2.99483 22.991 4.27434C20.9276 5.55385 19.2648 7.02036 18.0428 8.61482C16.8308 10.2093 15.9794 11.7939 15.5086 13.3096C15.0378 14.8549 14.9277 16.3017 15.1881 17.5911C15.4686 18.9493 16.1196 19.9729 17.1113 20.6619C18.1029 21.341 19.4251 21.5772 21.0177 21.3607C22.3199 21.1835 23.8324 20.5536 25.5051 19.4906C23.1512 23.0142 21.2281 26.8232 19.6955 30.3566C15.2482 40.6813 9.94946 44.51 9.89938 44.5493L9.59888 44.756C9.29838 44.3229 9.01792 43.88 8.77753 43.4076C8.18655 42.2364 7.75584 41.0651 7.48539 39.9136C7.22496 38.7719 7.1248 37.699 7.1849 36.7345C7.245 35.7896 7.42529 35.0416 7.69574 34.5199L8.04632 33.8507L7.3051 33.7129C6.1532 33.4767 5.08143 33.5849 4.08979 33.9983C3.11819 34.4117 2.29684 35.0514 1.63575 35.8979C0.994691 36.7345 0.533931 37.7187 0.243452 38.8407C-0.0370107 39.9628 -0.0770767 41.1439 0.13327 42.3446C0.343617 43.5454 0.854459 44.7462 1.64576 45.9076C2.44709 47.0788 3.59899 48.1319 5.09145 49.0374C6.56387 49.9331 8.42695 50.6614 10.6306 51.2028C11.7324 51.4685 12.9444 51.6752 14.2666 51.813C15.5888 51.9409 17.0412 52 18.5837 52C22.41 51.9606 25.9158 51.5866 29.0109 50.8878C32.116 50.189 34.8706 49.254 37.2244 48.1024C39.5883 46.941 41.6017 45.6025 43.2143 44.0966C44.837 42.6005 46.0891 41.0454 46.9405 39.4707C47.8019 37.8762 48.2827 36.262 48.3628 34.6774C48.4429 33.0731 48.1224 31.5968 47.4012 30.2779C46.69 28.959 45.5582 27.837 44.0457 26.9413C43.2844 26.4787 42.393 26.1047 41.4013 25.8193C44.1559 25.2091 46.6199 24.3429 48.7534 23.2504C51.6382 21.7544 53.942 20.0418 55.5847 18.1521C57.2475 16.2328 58.2591 14.1856 58.5797 12.0793C58.9002 9.9337 58.4494 7.9357 57.2074 6.15423ZM38.8671 38.1518C38.2261 39.9923 37.0842 41.7344 35.4515 43.3289C33.8188 44.9332 31.6553 46.3308 29.0409 47.4725C26.4266 48.6142 23.2814 49.2638 19.7055 49.4115C17.8124 49.4902 16.1397 49.254 14.7374 48.7126C13.325 48.1615 12.123 47.4233 11.1314 46.5178C10.8309 46.2324 10.5504 45.9371 10.28 45.632C18.5136 45.9962 25.1946 34.5987 29.1812 26.3606L29.1712 26.6953L29.2212 26.7051C31.6653 26.9413 35.2712 27.8173 36.6335 28.9492C37.9957 30.0909 38.8772 31.459 39.2478 33.0239C39.6284 34.6184 39.4882 36.3309 38.8671 38.1518ZM49.4646 14.0281C48.8636 15.4946 47.9822 16.971 46.8303 18.3785C45.6784 19.7958 44.2861 21.0753 42.6734 22.1776C41.0608 23.2701 39.2478 24.1658 37.2645 24.8154C35.3914 25.4354 31.8355 25.6028 29.5718 25.5929C30.313 24.028 30.9641 22.6008 31.495 21.4296L31.8356 20.652C34.54 14.6777 42.5733 8.01444 42.6534 7.94554L44.3261 6.56761L42.1726 6.87272C35.752 7.82743 30.5735 12.4041 26.5268 18.0143L26.3064 17.9159C25.2046 17.4336 24.4434 16.7545 23.9826 15.8293C23.5118 14.8943 23.3516 13.8608 23.4718 12.7388C23.602 11.5872 24.0427 10.3864 24.7839 9.15615C25.5251 7.91601 26.5769 6.7743 27.9091 5.77038C29.2413 4.76646 30.904 3.92985 32.8572 3.28026C34.8105 2.6405 37.0742 2.33539 39.5984 2.36492C42.1025 2.39444 44.1659 2.75861 45.7285 3.43774C47.251 4.10702 48.4129 4.99283 49.1641 6.06565C49.9054 7.12862 50.286 8.35892 50.316 9.72701C50.3461 11.1246 50.0556 12.5715 49.4646 14.0281ZM115.343 7.82743C115.343 7.82743 98.5155 32.1479 96.6124 34.1164C94.6992 36.1144 91.1033 41.0848 88.4289 39.9037C87.2469 39.3919 87.6877 37.6301 89.3604 34.9136C89.5808 34.5593 108.031 8.01444 108.031 8.01444L99.407 8.41798L80.8063 35.0613C77.9917 38.2699 75.0869 39.6478 74.1253 39.5002C73.1637 39.3427 72.2923 38.9785 73.4842 37.3447C74.6762 35.7109 82.0784 24.7563 82.0784 24.7563L73.5243 24.6677L72.3023 26.4197C70.5193 24.6874 68.466 24.5693 67.6747 24.4315C64.5695 23.8607 56.7967 25.9965 53.1908 32.6991C49.9755 38.6439 51.3577 43.5848 54.8335 44.6773C59.2808 46.0749 63.3175 43.0434 65.5311 40.8191C65.6814 42.8072 66.0219 43.9981 68.6963 44.5887C72.5126 45.4155 78.0017 41.7344 80.1052 39.9825C81.5475 42.9549 82.4891 44.3131 85.8346 44.6281C89.1901 44.9135 93.958 41.823 96.4721 38.9096C96.4922 43.0238 99.5773 44.5887 103.173 44.7462C107.47 44.9529 115.564 43.9489 119.47 35.6813C121.974 30.3369 121.624 27.4531 119.831 25.7012C117.617 23.5457 113.24 24.6382 111.517 25.7209C112.709 23.8508 124.188 7.51248 124.188 7.51248L115.343 7.82743ZM59.6715 40.071C57.5079 39.0966 58.7199 35.6912 60.2925 33.516C61.6547 31.646 65.2406 26.8921 68.496 27.5614C70.3891 27.9551 70.8499 28.7818 70.8499 28.7818C67.2439 34.953 62.8367 41.4687 59.6715 40.071ZM112.779 28.5063C114.632 29.4314 113.55 31.9019 113.19 32.7877C110.055 40.6222 102.662 44.3623 101.21 39.9529L105.938 32.9944C106.118 32.5023 110.055 27.148 112.779 28.5063ZM164.414 40.1596C164.605 39.3132 164.965 38.4175 165.556 37.4628C166.628 35.7404 174 25.1008 174 25.1008L165.446 25.0221L164.464 26.5968C163.553 25.0811 160.137 24.3528 158.815 24.3331C156.531 24.2839 151.954 25.1992 148.418 28.5259C144.591 31.1834 142.688 31.0062 142.688 31.0062C143.009 28.7326 142.548 24.9039 138.291 24.1855C133.273 23.339 125.47 26.3311 122.635 33.1814C120.291 38.8703 122.275 43.4076 126.341 44.7265C131.71 46.4784 138.932 43.3486 141.867 33.9392C143.039 34.1951 143.82 33.9983 144.912 33.6046C142.498 39.2246 143.55 44.0375 146.905 44.8151C151.703 45.9273 155.459 43.3682 158.855 39.5888C158.855 40.258 158.935 41.4096 159.316 42.6399L159.336 42.6104C159.336 42.6104 161.79 47.9646 167.619 45.2284C168.751 44.5887 170.033 43.6832 171.486 42.4332C171.466 42.4332 163.002 46.6753 164.414 40.1596ZM137.74 33.0731C136.528 37.5809 132.992 42.512 130.007 41.7147C127.874 41.1537 127.894 38.388 128.575 36.1538C129.517 33.0337 134.034 26.4098 138.882 27.5614C136.989 29.087 136.278 31.8133 137.74 33.0731ZM151.753 40.1892C149.58 39.2246 151.162 35.2581 152.725 33.0928C154.097 31.2228 157.333 26.8921 160.568 27.6893C162.311 28.1126 162.611 28.8409 162.611 28.8409C158.374 35.7207 154.909 41.5966 151.753 40.1892Z" fill="white"/>
</svg>
