<svg width="20" height="19" viewBox="0 0 20 19" fill="none" xmlns="http://www.w3.org/2000/svg">
<path d="M10.0768 0.272339C15.1396 0.272339 19.2435 4.37626 19.2435 9.43901C19.2435 14.5018 15.1396 18.6057 10.0768 18.6057C8.45688 18.6083 6.86544 18.1796 5.466 17.3636L0.913836 18.6057L2.15317 14.0517C1.3365 12.6518 0.907463 11.0597 0.910169 9.43901C0.910169 4.37626 5.01409 0.272339 10.0768 0.272339ZM6.95284 5.13067L6.7695 5.13801C6.65081 5.14523 6.53482 5.17642 6.4285 5.22967C6.32906 5.28598 6.23829 5.35638 6.159 5.43867C6.049 5.54226 5.98667 5.63209 5.91975 5.71917C5.5807 6.16 5.39814 6.70121 5.40092 7.25734C5.40275 7.70651 5.52009 8.14376 5.70342 8.55259C6.07834 9.37942 6.69525 10.2548 7.50925 11.0661C7.70542 11.2613 7.89792 11.4575 8.10509 11.6399C9.11653 12.5304 10.3218 13.1726 11.6251 13.5154L12.1458 13.5952C12.3153 13.6043 12.4849 13.5915 12.6554 13.5833C12.9224 13.5695 13.1831 13.4972 13.419 13.3715C13.539 13.3097 13.6562 13.2424 13.7701 13.1698C13.7701 13.1698 13.8095 13.1442 13.8847 13.0873C14.0084 12.9957 14.0845 12.9306 14.1872 12.8233C14.2633 12.7445 14.3293 12.6519 14.3797 12.5465C14.4512 12.3971 14.5227 12.112 14.552 11.8746C14.574 11.6931 14.5676 11.5941 14.5648 11.5327C14.5612 11.4346 14.4796 11.3328 14.3907 11.2898L13.8572 11.0505C13.8572 11.0505 13.0597 10.7031 12.572 10.4813C12.521 10.459 12.4663 10.4462 12.4107 10.4437C12.348 10.4372 12.2846 10.4443 12.2248 10.4644C12.1651 10.4844 12.1103 10.5171 12.0642 10.5601C12.0596 10.5583 11.9982 10.6105 11.3354 11.4135C11.2974 11.4646 11.245 11.5033 11.1849 11.5245C11.1248 11.5457 11.0598 11.5486 10.9981 11.5327C10.9384 11.5167 10.8799 11.4964 10.823 11.4722C10.7093 11.4245 10.6699 11.4062 10.592 11.3732C10.0659 11.1436 9.5788 10.8334 9.14825 10.4538C9.03275 10.3529 8.9255 10.2429 8.8155 10.1366C8.45487 9.79122 8.14058 9.40051 7.8805 8.97426L7.82642 8.88717C7.78757 8.82866 7.75617 8.76553 7.73292 8.69926C7.69809 8.56451 7.78884 8.45634 7.78884 8.45634C7.78884 8.45634 8.01159 8.21251 8.11517 8.08051C8.216 7.95217 8.30125 7.82751 8.35625 7.73859C8.46442 7.56442 8.49834 7.38567 8.4415 7.24726C8.18484 6.62026 7.919 5.99601 7.64584 5.37634C7.59175 5.25351 7.43134 5.16551 7.28559 5.14809C7.23609 5.14259 7.18659 5.13709 7.13709 5.13342C7.01398 5.12731 6.89063 5.12853 6.76767 5.13709L6.95192 5.12976L6.95284 5.13067Z" fill="black"/>
</svg>
