<svg width="43" height="42" viewBox="0 0 43 42" fill="none" xmlns="http://www.w3.org/2000/svg">
<path d="M21.3721 23.4174L26.3796 28.425C26.6962 28.7416 27.0991 28.8998 27.5883 28.8998C28.0776 28.8998 28.4805 28.7416 28.7971 28.425C29.1136 28.1084 29.2719 27.7055 29.2719 27.2163C29.2719 26.727 29.1136 26.3241 28.7971 26.0075L23.7895 21L28.7971 15.9924C29.1136 15.6759 29.2719 15.2729 29.2719 14.7837C29.2719 14.2945 29.1136 13.8916 28.7971 13.575C28.4805 13.2584 28.0776 13.1001 27.5883 13.1001C27.0991 13.1001 26.6962 13.2584 26.3796 13.575L21.3721 18.5825L16.3645 13.575C16.0479 13.2584 15.645 13.1001 15.1558 13.1001C14.6665 13.1001 14.2636 13.2584 13.9471 13.575C13.6305 13.8916 13.4722 14.2945 13.4722 14.7837C13.4722 15.2729 13.6305 15.6759 13.9471 15.9924L18.9546 21L13.9471 26.0075C13.6305 26.3241 13.4722 26.727 13.4722 27.2163C13.4722 27.7055 13.6305 28.1084 13.9471 28.425C14.2636 28.7416 14.6665 28.8998 15.1558 28.8998C15.645 28.8998 16.0479 28.7416 16.3645 28.425L21.3721 23.4174ZM21.3721 38.2674C18.9834 38.2674 16.7386 37.8139 14.6378 36.9067C12.5369 35.9996 10.7094 34.7696 9.15534 33.2167C7.60127 31.6626 6.37125 29.8352 5.46529 27.7343C4.55932 25.6334 4.10577 23.3886 4.10461 21C4.10461 18.6113 4.55817 16.3666 5.46529 14.2657C6.37241 12.1648 7.60242 10.3373 9.15534 8.78327C10.7094 7.2292 12.5369 5.99918 14.6378 5.09322C16.7386 4.18725 18.9834 3.7337 21.3721 3.73254C23.7607 3.73254 26.0055 4.1861 28.1064 5.09322C30.2072 6.00033 32.0347 7.23035 33.5888 8.78327C35.1428 10.3373 36.3734 12.1648 37.2805 14.2657C38.1877 16.3666 38.6406 18.6113 38.6395 21C38.6395 23.3886 38.1859 25.6334 37.2788 27.7343C36.3717 29.8352 35.1417 31.6626 33.5888 33.2167C32.0347 34.7708 30.2072 36.0014 28.1064 36.9085C26.0055 37.8156 23.7607 38.2686 21.3721 38.2674ZM21.3721 34.8139C25.2285 34.8139 28.4949 33.4757 31.1713 30.7993C33.8478 28.1228 35.186 24.8564 35.186 21C35.186 17.1436 33.8478 13.8772 31.1713 11.2007C28.4949 8.52426 25.2285 7.18603 21.3721 7.18603C17.5157 7.18603 14.2492 8.52426 11.5728 11.2007C8.89633 13.8772 7.5581 17.1436 7.5581 21C7.5581 24.8564 8.89633 28.1228 11.5728 30.7993C14.2492 33.4757 17.5157 34.8139 21.3721 34.8139Z" fill="white"/>
</svg>
