<svg width="85" height="16" viewBox="0 0 85 16" fill="none" xmlns="http://www.w3.org/2000/svg">
<g clip-path="url(#clip0_101_1024)">
<path d="M82.0729 7.0053C81.5568 6.70495 80.863 6.53151 80.4145 6.32423C80.0719 6.17194 79.928 5.9012 80.0719 5.60508C80.2242 5.29204 80.7615 5.16513 81.4468 5.36819C81.8826 5.50355 82.2633 5.76583 82.5679 6.04503V4.67019C81.9333 4.40368 81.231 4.28947 80.4907 4.31908C79.8434 4.34446 79.3442 4.52636 78.9296 4.8817C78.5531 5.2032 78.3077 5.6643 78.2908 6.23539C78.2654 7.03068 78.5912 7.48332 79.3569 7.88943C79.9534 8.20247 80.5584 8.33784 80.8926 8.53666C81.2141 8.72279 81.248 8.9893 81.1549 9.22196C80.9857 9.63653 80.313 9.75498 79.5938 9.50962C79.0692 9.32772 78.5996 8.93854 78.3585 8.65511V10.2245C79.0354 10.5207 79.7842 10.6729 80.5542 10.656C82.0772 10.6306 82.9529 9.81843 83.0079 8.76086C83.046 7.97826 82.8091 7.42833 82.0687 7.00107" fill="white"/>
<path d="M77.1316 6.01973C77.1316 5.24982 77.1908 5.04254 77.4954 4.46722H74.8217C75.1263 5.04677 75.194 5.24982 75.194 6.01973V8.95555C75.194 9.73392 75.1305 9.92851 74.8217 10.5081H77.4954C77.1908 9.92851 77.1316 9.73392 77.1316 8.95555V6.01973Z" fill="white"/>
<path d="M70.7476 4.26416C68.827 4.26416 67.2659 5.53324 67.2659 7.48763C67.2659 9.44202 68.827 10.7153 70.7476 10.7153C72.6683 10.7153 74.2294 9.44625 74.2294 7.48763C74.2294 5.52901 72.6726 4.26416 70.7476 4.26416ZM70.7476 9.71275C69.8931 9.71275 69.1992 8.94707 69.1992 7.48763C69.1992 6.02818 69.8931 5.27097 70.7476 5.27097C71.6022 5.27097 72.296 6.02818 72.296 7.48763C72.296 8.94707 71.6022 9.71275 70.7476 9.71275Z" fill="white"/>
<path d="M65.4932 10.5081C65.1844 9.92851 65.1251 9.73392 65.1251 8.95555C65.1251 8.95555 65.1209 5.59248 65.1251 5.47403C65.2182 5.47403 65.5778 5.47403 65.6624 5.48249C66.2674 5.5121 66.4705 5.61786 66.9528 5.96897L66.8131 4.46722H61.4953L61.3557 5.96897C61.838 5.62209 62.0453 5.5121 62.646 5.48249C62.7306 5.47826 63.0902 5.47403 63.1875 5.47403C63.1875 5.59248 63.1875 8.95555 63.1875 8.95555C63.1875 9.73392 63.1241 9.92851 62.8152 10.5081H65.4932Z" fill="white"/>
<path d="M61.1357 9.70426C60.8311 9.27277 60.6619 8.98934 60.5096 8.76091C60.0569 8.09253 59.7312 7.88524 59.3419 7.7118V7.70334C60.1838 7.6272 60.7677 6.97997 60.7592 6.07046C60.755 5.59667 60.5561 5.09326 60.0992 4.78868C59.7142 4.53487 59.27 4.46295 58.407 4.46295H54.9971C55.3017 5.0425 55.3694 5.24555 55.3694 6.01969V8.9555C55.3694 9.73387 55.3017 9.9327 54.9971 10.508H57.5905C57.2859 9.92847 57.2266 9.73387 57.2055 8.93435V8.10522H57.2774C57.5524 8.10522 57.7132 8.14329 57.8993 8.29135C58.0601 8.4098 58.2208 8.61708 58.4704 9.00204C58.627 9.24316 58.7623 9.4716 58.9612 9.7931C59.3335 10.3938 59.6677 10.5122 60.1965 10.5122H61.9776C61.5588 10.2161 61.3134 9.95385 61.1357 9.70426ZM58.3562 7.06034C58.0474 7.22109 57.6328 7.19148 57.2055 7.19148V5.4063C57.8824 5.4063 58.187 5.38092 58.4535 5.5882C58.6777 5.75319 58.7666 5.97739 58.7666 6.29889C58.7666 6.69654 58.5847 6.93343 58.3562 7.06457" fill="white"/>
<path d="M49.5227 10.5081C49.2943 9.99198 49.345 9.75931 49.4846 9.37859C49.5354 9.23899 49.6285 8.9894 49.6285 8.9894H51.858C51.858 8.9894 51.9765 9.25168 52.0188 9.37859C52.1584 9.78046 52.1753 10.0131 51.9595 10.5081H54.8321C54.3371 9.97083 54.2483 9.7297 54.1044 9.37859C53.9648 9.04016 52.0568 4.45032 52.0568 4.45032C52.0568 4.45032 50.5423 4.45032 49.7808 4.45032C49.9415 4.77605 50.0219 5.05102 49.9119 5.3556C49.9119 5.3556 48.4904 9.06555 48.3551 9.38705C48.0885 10.0089 48.0378 10.0766 47.6401 10.5081H49.5185H49.5227ZM49.9923 7.9826L50.2334 7.31421C50.4365 6.80235 50.6142 6.2778 50.6777 5.95629C50.6777 5.94783 50.6861 5.94783 50.6861 5.95629C50.7877 6.35394 50.9442 6.83196 51.1684 7.33536L51.4434 7.97837H49.9923V7.9826Z" fill="white"/>
<path d="M43.2868 7.97407L46.6544 7.43259L43.2868 6.89112L44.5898 4.87751L42.593 6.16774L42.0176 0L41.4719 6.16774L39.4751 4.87751L40.7781 6.89112L37.4105 7.43259L40.7781 7.97407L39.4751 9.99191L41.4719 8.69744L42.0176 15.5166L42.593 8.69744L44.5898 9.99191L43.2868 7.97407Z" fill="white"/>
<path d="M31.0181 10.4615C30.7896 9.94113 30.8404 9.70424 30.98 9.32774C31.0308 9.18392 31.1239 8.93856 31.1239 8.93856H33.3492C33.3492 8.93856 33.4676 9.19661 33.5099 9.32774C33.6495 9.72116 33.6665 9.95806 33.4507 10.4615H36.3233C35.8283 9.91998 35.7394 9.67463 35.5914 9.32774C35.4518 8.98932 33.548 4.39948 33.548 4.39948H31.2719C31.4327 4.72521 31.5131 5.0044 31.4031 5.30475C31.4031 5.30475 29.9816 9.01893 29.842 9.33621C29.5755 9.95806 29.5247 10.0215 29.1313 10.4615H31.0096H31.0181ZM31.4877 7.92752L31.7288 7.25914C31.9319 6.74728 32.1096 6.22695 32.1731 5.90545C32.1731 5.89699 32.1815 5.89699 32.1815 5.90545C32.2788 6.3031 32.4396 6.78112 32.6638 7.28452L32.9388 7.92752H31.4835H31.4877Z" fill="white"/>
<path d="M26.3221 5.9647C26.3221 5.18633 26.3814 4.98328 26.6902 4.40796H23.9784C24.283 4.98328 24.3507 5.18633 24.3507 5.9647V8.90051C24.3507 9.67888 24.283 9.88193 23.9784 10.4615H28.9789L29.127 8.93858C28.6913 9.2347 28.3909 9.42506 27.8282 9.42506H26.3179V5.9647H26.3221Z" fill="white"/>
<path d="M20.742 5.9647C20.742 5.18633 20.8012 4.98328 21.11 4.40796H18.3982C18.7028 4.98328 18.7705 5.18633 18.7705 5.9647V8.90051C18.7705 9.67888 18.7028 9.88193 18.3982 10.4615H23.3988L23.5469 8.93858C23.1111 9.2347 22.815 9.42506 22.2523 9.42506H20.742V5.9647Z" fill="white"/>
<path d="M16.6721 9.42928H14.963V7.69486H15.6991C16.2618 7.69486 16.5452 7.81754 16.981 8.11789L16.8456 6.68383H14.963V5.42744H16.4267C16.9894 5.42744 17.2771 5.54588 17.7129 5.84623L17.5732 4.41217H12.6234C12.928 4.98749 12.9957 5.19054 12.9957 5.96891V8.90472C12.9957 9.68309 12.9323 9.88615 12.6234 10.4657H17.8186L17.9582 9.01471C17.5225 9.31506 17.2348 9.43351 16.6721 9.43351" fill="white"/>
<path d="M10.8001 10.4614C10.4912 9.8819 10.432 9.67884 10.432 8.90047C10.432 8.90047 10.4278 5.5374 10.432 5.42319C10.5251 5.42319 10.8508 5.42319 10.9354 5.42742C11.5235 5.45703 11.7266 5.56702 12.1919 5.91813L12.0566 4.41638H6.87407L6.73869 5.91813C7.20829 5.56702 7.41136 5.45703 7.99518 5.42742C8.07979 5.42742 8.40555 5.42319 8.49862 5.42319C8.49862 5.5374 8.49862 8.90047 8.49862 8.90047C8.49862 9.67884 8.43516 9.8819 8.12633 10.4614H10.8001Z" fill="white"/>
<path d="M5.61759 6.95031C5.10146 6.64996 4.41187 6.47652 3.96343 6.28193C3.62498 6.12118 3.47691 5.85044 3.62075 5.55855C3.77305 5.24974 4.3061 5.12284 4.99569 5.32589C5.43144 5.45703 5.8122 5.7193 6.11257 6.00273V4.62789C5.48221 4.36139 4.77993 4.24717 4.03958 4.27678C3.39653 4.30216 2.89732 4.48829 2.48272 4.83941C2.11043 5.15668 1.86505 5.62201 1.84813 6.19309C1.82274 6.98416 2.1485 7.44103 2.91001 7.8429C3.50229 8.15594 4.10727 8.28708 4.44148 8.4859C4.76301 8.6805 4.79685 8.94277 4.70378 9.16698C4.53456 9.58577 3.86612 9.69999 3.14692 9.45464C2.62233 9.28119 2.15696 8.88355 1.91582 8.60012V10.1738C2.59271 10.4699 3.3373 10.6095 4.10727 10.5968C5.62605 10.5714 6.50178 9.76345 6.55255 8.71011C6.59063 7.92328 6.35371 7.37334 5.61759 6.94608" fill="white"/>
</g>
<defs>
<clipPath id="clip0_101_1024">
<rect width="84.8988" height="15.5166" fill="white"/>
</clipPath>
</defs>
</svg>
