<svg width="32" height="32" viewBox="0 0 32 32" fill="none" xmlns="http://www.w3.org/2000/svg">
<path fill-rule="evenodd" clip-rule="evenodd" d="M4.41822 15.7497C6.15051 11.0307 10.6836 7.6665 15.9999 7.6665C21.3163 7.6665 25.8494 11.0307 27.5817 15.7497C27.6409 15.9111 27.6409 16.0886 27.5817 16.25C25.8494 20.969 21.3163 24.3332 15.9999 24.3332C10.6836 24.3332 6.15051 20.969 4.41822 16.25C4.35897 16.0886 4.35897 15.9111 4.41822 15.7497ZM15.9999 5.6665C9.81812 5.6665 4.55274 9.57949 2.54072 15.0604C2.31813 15.6668 2.31813 16.3329 2.54072 16.9392C4.55274 22.4202 9.81812 26.3332 15.9999 26.3332C22.1818 26.3332 27.4472 22.4202 29.4592 16.9392C29.6818 16.3329 29.6818 15.6668 29.4592 15.0604C27.4472 9.57949 22.1818 5.6665 15.9999 5.6665ZM12.9999 15.9998C12.9999 14.343 14.3431 12.9998 15.9999 12.9998C17.6568 12.9998 18.9999 14.343 18.9999 15.9998C18.9999 17.6567 17.6568 18.9998 15.9999 18.9998C14.3431 18.9998 12.9999 17.6567 12.9999 15.9998ZM15.9999 10.9998C13.2385 10.9998 10.9999 13.2384 10.9999 15.9998C10.9999 18.7613 13.2385 20.9998 15.9999 20.9998C18.7614 20.9998 20.9999 18.7613 20.9999 15.9998C20.9999 13.2384 18.7614 10.9998 15.9999 10.9998Z" fill="white"/>
</svg>
