<svg width="114" height="114" viewBox="0 0 114 114" fill="none" xmlns="http://www.w3.org/2000/svg">
<path d="M74.8192 3.80791L78.6449 7.66173C74.0862 15.4696 75.0803 25.6898 81.7609 32.4194C88.4462 39.1538 98.6311 40.1917 106.468 35.6895L110.321 39.5703L93.2325 56.5341L57.7308 20.7717L74.8192 3.80791Z" stroke="#98252B" stroke-width="5" stroke-linejoin="round"/>
<path d="M32.239 81.5818C25.5631 74.8499 15.3497 73.783 7.50427 78.2844M32.239 81.5818L30.4638 83.3422M32.239 81.5818C32.2386 81.5815 32.2383 81.5812 32.238 81.5809L30.4638 83.3422M32.239 81.5818C38.9234 88.3162 39.8867 98.5083 35.3214 106.312M7.50427 78.2844L30.4638 83.3422M7.50427 78.2844L3.67804 74.4301L50.2494 28.1982M7.50427 78.2844L50.2494 28.1982M30.4638 83.3422C36.7832 89.708 37.2828 99.6224 32.12 106.636M35.3214 106.312L33.8942 104.875L32.12 106.636M35.3214 106.312L39.1731 110.192L85.7447 63.9602L50.2494 28.1982M35.3214 106.312C34.96 106.93 34.564 107.533 34.1333 108.118L32.12 106.636M32.12 106.636L50.2494 28.1982" stroke="#98252B" stroke-width="5" stroke-linejoin="round"/>
<path d="M32.5699 64.851C32.8943 73.7774 40.4206 80.7759 49.347 80.4515C58.2734 80.1271 65.2719 72.6007 64.9475 63.6743C64.6231 54.7479 57.0968 47.7494 48.1704 48.0738C39.2439 48.3982 32.2455 55.9245 32.5699 64.851ZM55.826 52.8613L55.9539 56.3808C55.9576 56.4899 55.9326 56.598 55.8814 56.6944C55.8302 56.7907 55.7546 56.872 55.6621 56.9299L53.5534 58.2644C53.4155 58.3522 53.2487 58.3824 53.0888 58.3483L48.3832 57.3612C48.2884 57.3414 48.1995 57.2998 48.1236 57.2397C48.0477 57.1795 47.9868 57.1025 47.9459 57.0147L46.9402 54.8613C46.891 54.7561 46.8722 54.6392 46.8859 54.5239C46.8996 54.4085 46.9453 54.2993 47.0178 54.2086L49.6879 50.8671C49.7538 50.7848 49.8395 50.7205 49.937 50.6803C50.0345 50.6401 50.1406 50.6253 50.2454 50.6372C52.0961 50.8387 53.8858 51.4177 55.5038 52.3384C55.5981 52.3903 55.6773 52.4657 55.7338 52.5574C55.7903 52.649 55.822 52.7537 55.826 52.8613ZM47.6336 73.7709L48.4803 71.5502C48.5148 71.4597 48.5699 71.3784 48.6413 71.313C48.7126 71.2475 48.7982 71.1995 48.8914 71.1729L53.513 69.8468C53.6699 69.8013 53.8385 69.8192 53.9824 69.8968L56.1762 71.0749C56.2726 71.126 56.3539 71.2015 56.412 71.2939C56.47 71.3863 56.5028 71.4924 56.507 71.6014L56.6349 75.1209C56.6389 75.2274 56.6154 75.333 56.5669 75.4278C56.5184 75.5227 56.4463 75.6034 56.3577 75.6625C54.8108 76.6982 53.0678 77.4056 51.2366 77.7408C51.133 77.7604 51.0261 77.7533 50.9259 77.7203C50.8257 77.6873 50.7356 77.6294 50.6639 77.552L47.7583 74.4132C47.68 74.3282 47.6269 74.2232 47.6049 74.1097C47.5828 73.9963 47.5928 73.879 47.6336 73.7709ZM40.1169 54.0198L44.167 55.2809C44.2497 55.3062 44.3263 55.3484 44.3918 55.4049C44.4573 55.4615 44.5104 55.531 44.5475 55.6092L45.6064 57.876C45.655 57.98 45.6738 58.0954 45.6609 58.2095C45.648 58.3235 45.6038 58.4318 45.5333 58.5224L42.0196 63.0346C41.9642 63.1067 41.8938 63.1658 41.8132 63.2077C41.7326 63.2497 41.6438 63.2735 41.553 63.2776L38.9394 63.3725C38.837 63.3762 38.7353 63.3545 38.6433 63.3095C38.5512 63.2644 38.4717 63.1974 38.4118 63.1143L36.0694 59.8615C36.0081 59.7766 35.9693 59.6777 35.9564 59.5738C35.9435 59.4699 35.9569 59.3645 35.9955 59.2672C36.7624 57.3187 37.9633 55.5706 39.507 54.1557C39.5877 54.0814 39.6866 54.0296 39.7937 54.0058C39.9008 53.9819 40.0123 53.9867 40.1169 54.0198ZM36.4223 69.574L38.5224 66.159C38.5762 66.0718 38.6506 65.9991 38.7391 65.9475C38.8277 65.8959 38.9275 65.8669 39.03 65.8631L41.6435 65.7681C41.7345 65.7648 41.825 65.7815 41.9089 65.817C41.9927 65.8524 42.0677 65.9058 42.1287 65.9734L45.9607 70.2187C46.0376 70.3039 46.0895 70.4087 46.1107 70.5215C46.1318 70.6343 46.1214 70.7508 46.0805 70.8581L45.1868 73.1989C45.1558 73.2801 45.1083 73.3538 45.0472 73.4155C44.9861 73.4772 44.9128 73.5254 44.8319 73.5571L40.8841 75.1088C40.7818 75.1491 40.6706 75.1616 40.5618 75.1451C40.4531 75.1285 40.3507 75.0834 40.265 75.0144C38.6211 73.7146 37.2953 72.0569 36.3886 70.1675C36.3443 70.0736 36.3242 69.9701 36.3301 69.8665C36.336 69.7628 36.3677 69.6623 36.4223 69.574ZM61.8599 67.3005L58.0482 68.9767C57.9616 69.015 57.8674 69.0331 57.7727 69.0295C57.678 69.0259 57.5855 69.0008 57.502 68.956L55.4354 67.8489C55.339 67.7978 55.2577 67.7222 55.1996 67.6299C55.1416 67.5375 55.1088 67.4314 55.1046 67.3224L54.8657 60.7503C54.862 60.6413 54.887 60.5331 54.9382 60.4368C54.9894 60.3404 55.0651 60.2592 55.1575 60.2012L57.1382 58.9462C57.2181 58.8954 57.3086 58.8635 57.4028 58.8529C57.4969 58.8423 57.5923 58.8533 57.6815 58.8851L61.6028 60.2694C61.6986 60.3032 61.7848 60.36 61.8536 60.4348C61.9225 60.5096 61.972 60.6001 61.9979 60.6984C62.5358 62.7048 62.6122 64.807 62.2214 66.8471C62.2024 66.9463 62.1596 67.0394 62.0966 67.1184C62.0336 67.1974 61.9524 67.2599 61.8599 67.3005Z" fill="#98252B"/>
</svg>
