<svg width="70" height="32" viewBox="0 0 70 32" fill="none" xmlns="http://www.w3.org/2000/svg">
<g clip-path="url(#clip0_1086_6521)">
<path d="M16 32C24.8366 32 32 24.8366 32 16C32 7.16344 24.8366 0 16 0C7.16344 0 0 7.16344 0 16C0 24.8366 7.16344 32 16 32Z" fill="#F0F0F0"/>
<path d="M0 15.9995C0 24.836 7.1635 31.9995 16 31.9995C16 25.9148 16 15.9995 16 15.9995C16 15.9995 5.56519 15.9995 0 15.9995Z" fill="#0052B4"/>
<path d="M16 0.000976562C24.8365 0.000976562 32 7.16448 32 16.001C25.9153 16.001 16 16.001 16 16.001C16 16.001 16 5.56616 16 0.000976562Z" fill="#D80027"/>
<path d="M9.52547 5.56641L10.5615 8.75503H13.9142L11.2018 10.7257L12.2378 13.9143L9.52547 11.9436L6.81309 13.9143L7.84909 10.7257L5.13672 8.75503H8.48941L9.52547 5.56641Z" fill="#0052B4"/>
<path d="M22.4762 18.0864L23.5122 21.2751H26.8649L24.1525 23.2457L25.1885 26.4343L22.4762 24.4636L19.7638 26.4343L20.7998 23.2457L18.0874 21.2751H21.4401L22.4762 18.0864Z" fill="#D80027"/>
</g>
<path d="M42.254 16.146H40.378V15.054H42.254V13.164H43.346V15.054H45.222V16.146H43.346V18.064H42.254V16.146ZM48.8535 20.64C48.1068 20.64 47.5375 20.43 47.1455 20.01C46.7535 19.5807 46.5575 18.9693 46.5575 18.176V17.406H48.0135V18.288C48.0135 18.9227 48.2795 19.24 48.8115 19.24C49.3435 19.24 49.6095 18.9227 49.6095 18.288V16.09C49.6095 15.446 49.3435 15.124 48.8115 15.124C48.2795 15.124 48.0135 15.446 48.0135 16.09V16.174H46.5575L46.8375 10.7H50.8975V12.1H48.2095L48.0835 14.438H48.1115C48.4008 13.962 48.8441 13.724 49.4415 13.724C50.0015 13.724 50.4261 13.9153 50.7155 14.298C51.0048 14.6807 51.1495 15.236 51.1495 15.964V18.176C51.1495 18.9693 50.9535 19.5807 50.5615 20.01C50.1695 20.43 49.6001 20.64 48.8535 20.64ZM54.8509 20.64C54.0949 20.64 53.5163 20.4253 53.1149 19.996C52.7136 19.5667 52.5129 18.96 52.5129 18.176V13.024C52.5129 12.24 52.7136 11.6333 53.1149 11.204C53.5163 10.7747 54.0949 10.56 54.8509 10.56C55.6069 10.56 56.1856 10.7747 56.5869 11.204C56.9883 11.6333 57.1889 12.24 57.1889 13.024V18.176C57.1889 18.96 56.9883 19.5667 56.5869 19.996C56.1856 20.4253 55.6069 20.64 54.8509 20.64ZM54.8509 19.24C55.3829 19.24 55.6489 18.918 55.6489 18.274V12.926C55.6489 12.282 55.3829 11.96 54.8509 11.96C54.3189 11.96 54.0529 12.282 54.0529 12.926V18.274C54.0529 18.918 54.3189 19.24 54.8509 19.24ZM61.6604 12.1H58.5524V10.7H63.1724V12.044L60.7644 20.5H59.1964L61.6604 12.1Z" fill="white"/>
<defs>
<clipPath id="clip0_1086_6521">
<rect width="32" height="32" fill="white"/>
</clipPath>
</defs>
</svg>
