<svg width="32" height="32" viewBox="0 0 32 32" fill="none" xmlns="http://www.w3.org/2000/svg">
<path d="M21.3333 12V8C21.3333 5.79086 19.5424 4 17.3333 4H14.6666C12.4575 4 10.6666 5.79086 10.6666 8V12M21.3333 12H10.6666M21.3333 12C23.5424 12 25.3333 13.7909 25.3333 16V24C25.3333 26.2091 23.5424 28 21.3333 28H10.6666C8.45749 28 6.66663 26.2091 6.66663 24V16C6.66663 13.7909 8.45749 12 10.6666 12M16 18.6667V22.6667M17.3333 18.6667C17.3333 19.403 16.7363 20 16 20C15.2636 20 14.6666 19.403 14.6666 18.6667C14.6666 17.9303 15.2636 17.3333 16 17.3333C16.7363 17.3333 17.3333 17.9303 17.3333 18.6667Z" stroke="white" stroke-width="2" stroke-linecap="round" stroke-linejoin="round"/>
</svg>
