<svg width="56" height="26" viewBox="0 0 56 26" fill="none" xmlns="http://www.w3.org/2000/svg">
<g clip-path="url(#clip0_901_24314)">
<path d="M40.5934 8.53781C40.5934 7.73642 40.5731 6.93212 40.5993 6.13074C40.6196 5.47506 40.4887 4.90972 39.9299 4.50174C39.86 4.44929 39.796 4.31524 39.8164 4.24238C39.8338 4.18119 39.9764 4.11708 40.0608 4.11708C41.4665 4.1229 42.8751 4.08502 44.275 4.16953C46.1697 4.2861 47.8926 5.74316 48.3611 7.50912C48.8588 9.39165 47.9479 11.3616 46.0998 12.3699C45.3518 12.7779 44.5486 12.9819 43.6988 12.9906C42.5375 12.9993 41.3763 12.9964 40.2151 12.9877C40.0812 12.9877 39.9473 12.9119 39.8105 12.874C39.8804 12.7516 39.9211 12.5972 40.0201 12.5127C40.4246 12.1717 40.6022 11.7492 40.5963 11.2246C40.5876 10.33 40.5963 9.43244 40.5963 8.53781H40.5934ZM43.2739 12.4719C44.1441 12.3495 44.7203 11.9007 45.1277 11.2159C45.6749 10.295 45.8146 9.278 45.768 8.22891C45.7215 7.18565 45.4828 6.20359 44.7698 5.39638C44.3769 4.95052 43.8879 4.67076 43.2535 4.62996C42.9741 7.25851 42.9916 9.84625 43.2768 12.469L43.2739 12.4719Z" fill="white"/>
<path d="M27.9306 4.65918C27.9306 6.20367 27.9073 7.72776 27.9393 9.24893C27.9539 9.9425 28.0557 10.6361 28.1605 11.3238C28.2304 11.7813 28.3672 12.2243 28.728 12.571C28.9143 12.7488 28.8241 12.947 28.568 12.9878C28.5098 12.9965 28.4516 12.9936 28.3933 12.9936C27.2554 12.9936 26.1145 12.9994 24.9766 12.9878C24.8398 12.9878 24.7059 12.9033 24.5721 12.8566C24.6244 12.7284 24.6797 12.6002 24.7321 12.472C24.9009 12.0582 25.1367 11.656 25.2211 11.2247C25.352 10.5428 25.4219 9.84342 25.4364 9.14694C25.4684 7.66074 25.4452 6.17162 25.4452 4.66793C25.0785 4.57176 24.7292 4.60964 24.4382 4.8078C23.8648 5.1983 23.3148 5.62667 22.756 6.04048C22.6716 6.10168 22.6047 6.20076 22.5115 6.2299C22.3165 6.29401 22.1419 6.25321 22.1798 5.99677C22.2583 5.4664 22.3515 4.93894 22.4504 4.4144C22.4999 4.15504 22.7094 4.11133 22.9335 4.11133C23.632 4.11133 24.3276 4.11133 25.0261 4.11133C26.781 4.11133 28.536 4.11133 30.2909 4.11133C30.8293 4.11133 30.8788 4.15504 30.9632 4.67958C31.0272 5.08173 31.1058 5.48097 31.1611 5.88312C31.1756 5.99385 31.1262 6.11333 31.1087 6.2299C30.9719 6.19202 30.8089 6.1891 30.7042 6.10751C30.3084 5.80444 29.9446 5.45765 29.54 5.16624C29.0802 4.83403 28.5971 4.51931 27.9335 4.65627L27.9306 4.65918Z" fill="white"/>
<path d="M32.8053 12.2156C31.5247 13.221 30.2995 13.2268 29.4468 12.2506C28.7512 11.455 28.7948 10.2544 29.5515 9.49671C30.2878 8.75652 31.6586 8.5263 32.7093 9.56956C32.9304 9.05959 32.6278 7.55299 32.1592 7.21495C32.037 7.12461 31.8507 7.1217 31.6935 7.0809C31.6674 7.23243 31.6382 7.38105 31.6179 7.53259C31.6121 7.56464 31.6324 7.59961 31.6441 7.63458C31.8303 8.28152 31.7081 8.51173 31.0358 8.6487C30.7331 8.70989 30.4072 8.71572 30.1016 8.67493C29.5457 8.60207 29.342 8.19409 29.5661 7.67829C29.7669 7.22369 30.1365 6.94685 30.5847 6.78074C31.4898 6.4427 32.4037 6.43396 33.3059 6.7924C34.4817 7.25866 35.2005 8.31649 35.218 9.5783C35.2267 10.1815 35.2383 10.7877 35.2471 11.3909C35.2529 11.8659 35.4683 12.2302 35.8291 12.5303C35.9252 12.609 35.9688 12.7489 36.0358 12.8625C35.9165 12.9062 35.7971 12.9878 35.6778 12.9907C35.2354 13.0053 34.7931 12.9791 34.3536 13.0024C33.6959 13.0345 33.1691 12.8246 32.8082 12.2214L32.8053 12.2156ZM31.0096 10.9071C31.0009 11.5016 31.3763 12.0145 31.8274 12.032C32.3018 12.0495 32.7063 11.5424 32.7063 10.9305C32.7063 10.3389 32.328 9.83475 31.8682 9.82018C31.4142 9.80852 31.0183 10.3068 31.0096 10.9071Z" fill="white"/>
<path d="M52.6568 12.2068C51.4956 13.3986 50.0695 13.0489 49.3914 12.335C48.6289 11.5307 48.6318 10.2922 49.4147 9.50245C50.1859 8.72438 51.5829 8.55244 52.6452 9.64233C52.6685 8.76517 52.6306 7.95505 52.0835 7.27606C51.9845 7.15075 51.7488 7.13618 51.5742 7.06915C51.548 7.24109 51.5043 7.41011 51.4985 7.58204C51.4956 7.66655 51.5509 7.75689 51.5858 7.84431C51.7022 8.11824 51.6062 8.32223 51.3646 8.46502C50.8873 8.74769 50.3664 8.77392 49.8483 8.64278C49.3798 8.52622 49.2022 8.17361 49.4263 7.72775C49.5718 7.43925 49.8018 7.14492 50.0724 6.98173C51.6207 6.03755 54.598 6.46884 55.0462 9.14693C55.1393 9.70352 55.0957 10.2834 55.084 10.8546C55.0724 11.5453 55.1626 12.1805 55.7942 12.6089C55.8611 12.6526 55.9019 12.7896 55.8902 12.8741C55.8844 12.9236 55.7476 12.9877 55.669 12.9877C55.052 12.9965 54.435 13.0081 53.821 12.9819C53.3087 12.9586 52.9479 12.6468 52.6597 12.2068H52.6568ZM50.8815 10.8779C50.8582 11.5074 51.2599 12.0494 51.7371 12.0319C52.2319 12.0173 52.6423 11.4258 52.5811 10.8225C52.5229 10.2456 52.133 9.8026 51.6993 9.82009C51.2657 9.83757 50.9019 10.3067 50.8815 10.875V10.8779Z" fill="white"/>
<path d="M34.6767 20.4712C34.764 20.5615 34.8659 20.6431 34.9357 20.7451C35.25 21.1968 34.9532 21.7388 34.3478 21.8175C34.246 21.8321 34.1383 21.8321 34.0364 21.835C33.6202 21.835 33.2041 21.835 32.7559 21.835V19.2618C33.2652 19.2618 33.7774 19.2152 34.2751 19.2735C34.9357 19.3521 35.1045 19.9146 34.6738 20.4712H34.6767ZM33.271 20.7393V21.4765C33.5969 21.459 33.9025 21.4765 34.1907 21.4153C34.3216 21.3891 34.4875 21.2317 34.5224 21.1006C34.5836 20.8791 34.4031 20.7567 34.1994 20.7451C33.9025 20.7247 33.6028 20.7393 33.271 20.7393ZM33.2739 19.6494V20.3109C33.5591 20.3109 33.821 20.3459 34.0626 20.2963C34.1965 20.2701 34.3013 20.0982 34.4177 19.9903C34.2925 19.8767 34.1848 19.696 34.0422 19.6639C33.8007 19.6086 33.5417 19.6494 33.271 19.6494H33.2739Z" fill="white"/>
<path d="M41.158 20.4654C41.2657 20.6053 41.4054 20.7248 41.4665 20.8763C41.6557 21.3455 41.3676 21.7709 40.8088 21.8117C40.2908 21.8496 39.7698 21.8205 39.2227 21.8205V19.2648C39.732 19.2648 40.2413 19.2152 40.7389 19.2764C41.3996 19.3551 41.5626 19.8942 41.158 20.4683V20.4654ZM39.7436 20.7277V21.4766C40.0637 21.462 40.3548 21.4795 40.6313 21.4183C40.7739 21.3863 40.9572 21.2318 40.9921 21.0978C41.0562 20.853 40.835 20.751 40.6313 20.7335C40.346 20.7102 40.0579 20.7277 39.7436 20.7277ZM39.7232 20.2964C40.0405 20.2964 40.3286 20.3226 40.608 20.2818C40.7069 20.2672 40.8524 20.0866 40.8524 19.9817C40.8524 19.8738 40.7098 19.6902 40.6109 19.6786C40.3228 19.6378 40.0259 19.664 39.7232 19.664V20.2964Z" fill="white"/>
<path d="M27.4241 17.8982V15.3454C27.9479 15.3454 28.4631 15.2929 28.9607 15.3571C29.6127 15.4416 30.0026 16.0157 29.9677 16.6976C29.9357 17.3416 29.4671 17.8341 28.7774 17.8894C28.3408 17.9244 27.8955 17.8953 27.4241 17.8953V17.8982ZM27.9392 17.4727C28.4893 17.4756 29.0248 17.5922 29.3536 17.0473C29.5428 16.7296 29.5283 16.3887 29.3158 16.0943C28.9636 15.6048 28.4427 15.7388 27.9392 15.7505V17.4727Z" fill="white"/>
<path d="M24.444 21.8264V19.2794C24.9591 19.2794 25.4742 19.2183 25.9632 19.294C26.6675 19.4048 27.0225 19.9584 26.9701 20.6928C26.9265 21.3077 26.4346 21.7827 25.7652 21.8206C25.3403 21.8439 24.9096 21.8264 24.441 21.8264H24.444ZM24.9416 21.4155C25.4655 21.4009 26.0068 21.5466 26.3473 21.0134C26.551 20.6928 26.5452 20.3344 26.3211 20.0284C25.969 19.5475 25.4509 19.6554 24.9416 19.667V21.4126V21.4155Z" fill="white"/>
<path d="M44.4031 21.8293V19.2619C44.8891 19.2619 45.3664 19.2182 45.8321 19.2707C46.548 19.3523 46.9554 19.9001 46.9263 20.6403C46.9002 21.2931 46.4054 21.7885 45.7069 21.8264C45.282 21.8497 44.8542 21.8293 44.4031 21.8293ZM44.892 21.4097C45.4333 21.4097 45.9747 21.5408 46.3064 21.0017C46.5043 20.6782 46.4956 20.3198 46.2657 20.0196C45.9077 19.5504 45.3897 19.6612 44.892 19.667V21.4097Z" fill="white"/>
<path d="M44.9996 15.3337C45.4682 15.3337 45.9193 15.3074 46.3646 15.3424C46.7429 15.3715 47.0223 15.5959 47.1155 15.9719C47.2057 16.3419 47.1446 16.6916 46.8128 16.9423C46.7604 16.9831 46.7051 17.0239 46.6323 17.0763C46.8128 17.3473 46.9874 17.6009 47.1678 17.8719C46.8244 17.9826 46.58 17.9127 46.4403 17.5921C46.2569 17.1666 45.928 17.0763 45.4769 17.1958V17.8864H44.9996V15.3366V15.3337ZM45.4769 16.7295C45.736 16.7295 45.9571 16.747 46.1725 16.7237C46.4577 16.6946 46.6498 16.5314 46.6498 16.2283C46.6498 15.9252 46.4577 15.765 46.1696 15.7416C45.9455 15.7242 45.7156 15.7387 45.4769 15.7387V16.7295Z" fill="white"/>
<path d="M31.0765 15.3394H32.945V15.724H31.5946V16.3651H32.7791V16.7848H31.5975V17.4871H32.9945L33.0177 17.8834H31.0765V15.3423V15.3394Z" fill="white"/>
<path d="M28.076 21.806V19.262H29.9474L29.9678 19.6466H28.5912V20.3198C28.8997 20.3198 29.2082 20.3314 29.5138 20.3169C29.8048 20.3023 29.8543 20.4334 29.7641 20.7161H28.5912V21.4097H29.994L30.0202 21.8089H28.079L28.076 21.806Z" fill="white"/>
<path d="M37.913 10.5894C37.6976 9.6452 37.1766 9.13231 36.2599 8.92832C37.1563 8.70685 37.7063 8.21145 37.9071 7.25562C38.1312 8.17357 38.6522 8.71559 39.5922 8.91958C38.6638 9.12357 38.1429 9.64811 37.913 10.5894Z" fill="white"/>
<path d="M36.1406 21.8087V19.2734H38.0382L38.0615 19.6435H36.6732V20.3167H37.849L37.8665 20.7159H36.6732V21.4182H38.0527L38.0818 21.8116H36.1406V21.8087Z" fill="white"/>
<path d="M43.6318 16.3709V16.7789H42.4182V17.4841H43.8384L43.8588 17.8805H41.9321V15.3364H43.7715V15.7327H42.4094V16.3709H43.6347H43.6318Z" fill="white"/>
<path d="M50.4187 21.8001C50.0462 21.8991 49.8832 21.7826 49.7319 21.4737C49.5049 21.0074 49.0305 21.3425 48.6783 21.258C48.5008 21.2172 48.3262 21.2493 48.2796 21.4766C48.204 21.835 47.9769 21.902 47.6306 21.7971C47.9973 20.9841 48.3553 20.1681 48.7307 19.3638C48.818 19.1744 49.2342 19.189 49.3244 19.3842C49.694 20.1827 50.052 20.9841 50.4216 21.8001H50.4187ZM49.013 19.7514C48.8413 20.1681 48.7104 20.4887 48.5736 20.8238H49.4758C49.3244 20.4741 49.1906 20.1623 49.0159 19.7514H49.013Z" fill="white"/>
<path d="M53.0788 19.4629L52.9623 19.7426C52.6247 19.7047 52.3279 19.6406 52.0369 19.6552C51.9117 19.661 51.7953 19.8242 51.6731 19.9146C51.7691 20.0253 51.8477 20.1856 51.9699 20.2409C52.1882 20.34 52.4385 20.3663 52.6684 20.4479C52.9885 20.5586 53.2155 20.7538 53.1952 21.1327C53.1777 21.4999 52.9594 21.7126 52.6364 21.8087C52.1096 21.9661 51.6061 21.8903 51.1172 21.5785L51.2511 21.2609C51.5945 21.3308 51.9117 21.4387 52.2348 21.4474C52.3861 21.4532 52.6393 21.3017 52.68 21.1706C52.7528 20.9258 52.488 20.8733 52.3046 20.815C52.0834 20.7451 51.8535 20.7014 51.6381 20.6198C51.3558 20.5149 51.1754 20.3167 51.1783 19.9903C51.1783 19.6785 51.3326 19.46 51.6032 19.323C52.0165 19.1161 52.6538 19.1715 53.0817 19.46L53.0788 19.4629Z" fill="white"/>
<path d="M38.332 15.3628C38.6871 15.2549 38.8908 15.3132 39.0189 15.6746C39.2022 16.1962 39.4496 16.6945 39.7028 17.2715C39.956 16.6945 40.1772 16.1816 40.4042 15.6687C40.5129 15.422 40.7253 15.3161 41.0416 15.3511C40.8553 15.7824 40.6749 16.202 40.4944 16.6217C40.3343 16.9947 40.1801 17.3706 40.0055 17.7349C39.9676 17.8135 39.8425 17.8951 39.7552 17.8981C39.6359 17.8981 39.4438 17.8602 39.4089 17.7815C39.0392 16.9859 38.6958 16.1787 38.3379 15.3628H38.332Z" fill="white"/>
<path d="M49.3972 17.895H48.8588C49.0916 16.8401 48.2564 16.2048 47.8926 15.3568C48.2011 15.2694 48.4193 15.3015 48.5736 15.622C48.722 15.9338 48.9257 16.2165 49.1237 16.5429C49.3245 16.2165 49.5224 15.928 49.6766 15.622C49.8163 15.3481 50.0026 15.249 50.3111 15.351C49.9909 16.1844 49.1033 16.8052 49.3943 17.8921L49.3972 17.895Z" fill="white"/>
<path d="M34.144 17.8834V15.3364H34.6184V17.4841H35.9543V17.8863H34.144V17.8834Z" fill="white"/>
<path d="M37.4066 17.898H36.938V15.3423H37.4066V17.898Z" fill="white"/>
<path d="M42.6306 19.2532H43.0701V21.8059H42.6306V19.2532Z" fill="white"/>
</g>
<path d="M4.97664 9.75683C5.1304 9.74259 5.33096 9.72479 5.3577 9.72123C5.5616 9.69987 5.76884 9.68207 5.97274 9.66428C6.19 9.64648 6.40727 9.62868 6.62788 9.61444C6.68471 9.61088 6.73485 9.5646 6.74487 9.50409C6.75156 9.46849 6.75824 9.43645 6.76493 9.40086C6.82844 9.11252 6.92537 8.81707 7.05574 8.51805C7.14933 8.30803 7.25963 8.13716 7.35657 7.9841C7.43011 7.87018 7.49027 7.77407 7.52704 7.68864C7.60058 7.51777 7.64069 7.31487 7.64069 7.09773C7.64069 6.97314 7.64069 6.86991 7.64069 6.756C7.64069 6.59225 7.64403 6.38935 7.64403 6.02982C7.64403 5.74148 7.65072 5.45315 7.66074 5.16481C7.67077 4.95835 7.66074 4.74832 7.634 4.54542C7.59055 4.18945 7.54375 3.91891 7.51701 3.75517C7.51701 3.75517 7.35657 2.97915 7.44348 2.81896C7.53038 2.65878 7.46019 2.58402 7.39 2.46655C7.37663 2.44519 7.36325 2.42384 7.35657 2.40248C7.35323 2.3918 7.34988 2.38112 7.35657 2.37044C7.35991 2.36332 7.36994 2.35976 7.37997 2.35264C7.41339 2.33484 7.45685 2.31705 7.47022 2.28145C7.48693 2.24229 7.48359 2.19602 7.47356 2.15686C7.43011 1.90056 6.83178 1.92192 6.67134 1.92192C6.54432 1.92192 5.91257 1.90412 5.86912 2.15686C5.86243 2.19602 5.85909 2.24229 5.87246 2.28145C5.88917 2.32061 5.92928 2.3384 5.96271 2.35264C5.96939 2.3562 5.97942 2.35976 5.98611 2.37044C5.99279 2.38112 5.98945 2.3918 5.98611 2.40248C5.97942 2.42384 5.96605 2.44519 5.95268 2.46655C5.88249 2.58046 5.81563 2.65878 5.8992 2.81896C5.98611 2.97915 5.82566 3.75517 5.82566 3.75517C5.75547 4.17165 5.57497 5.26804 5.57497 6.71328C5.57497 7.24368 5.57162 7.37183 5.57162 7.62813C5.57162 7.90934 5.52149 8.19412 5.41118 8.45042C5.30087 8.70316 5.11703 8.90962 5.00673 9.16236C4.94656 9.29407 4.88974 9.43646 4.84963 9.5824C4.82288 9.67852 4.88974 9.76751 4.97664 9.75683Z" fill="white"/>
<path d="M19.3966 12.4693C19.3966 11.1166 15.1248 10.3797 9.75324 10.3797C4.38169 10.3797 0.109863 11.1166 0.109863 12.4693C0.109863 13.2453 1.604 14.0996 3.91707 14.5232C3.91707 14.5232 3.2285 24.7681 3.22516 24.825C3.21847 25.0742 3.88699 25.5654 9.75324 25.5654C15.6228 25.5654 16.2913 25.0742 16.2813 24.825C16.278 24.7681 15.5894 14.5232 15.5894 14.5232C17.9058 14.0996 19.3966 13.2489 19.3966 12.4693Z" fill="white"/>
<path d="M14.5298 9.75683C14.376 9.74259 14.1755 9.72479 14.1487 9.72123C13.9448 9.69987 13.7376 9.68207 13.5337 9.66428C13.3164 9.64648 13.0992 9.62868 12.8786 9.61444C12.8217 9.61088 12.7716 9.5646 12.7616 9.50409C12.7549 9.46849 12.7482 9.43645 12.7415 9.40086C12.678 9.11252 12.5811 8.81707 12.4507 8.51805C12.3571 8.30803 12.2468 8.13716 12.1499 7.9841C12.0763 7.87018 12.0162 7.77407 11.9794 7.68864C11.9059 7.51777 11.8658 7.31487 11.8658 7.09773C11.8658 6.97314 11.8658 6.86991 11.8658 6.756C11.8658 6.59225 11.8624 6.38935 11.8624 6.02982C11.8624 5.74148 11.8557 5.45315 11.8457 5.16481C11.8357 4.95835 11.8457 4.74832 11.8724 4.54542C11.9159 4.18945 11.9627 3.91891 11.9894 3.75517C11.9894 3.75517 12.1499 2.97915 12.063 2.81896C11.9761 2.65878 12.0463 2.58402 12.1164 2.46655C12.1298 2.44519 12.1432 2.42384 12.1499 2.40248C12.1532 2.3918 12.1566 2.38112 12.1499 2.37044C12.1465 2.36332 12.1365 2.35976 12.1265 2.35264C12.0931 2.33484 12.0496 2.31705 12.0362 2.28145C12.0195 2.24229 12.0229 2.19602 12.0329 2.15686C12.0763 1.90056 12.6747 1.92192 12.8351 1.92192C12.9621 1.92192 13.5939 1.90412 13.6373 2.15686C13.644 2.19602 13.6474 2.24229 13.634 2.28145C13.6173 2.32061 13.5772 2.3384 13.5437 2.35264C13.5371 2.3562 13.527 2.35976 13.5203 2.37044C13.5137 2.38112 13.517 2.3918 13.5203 2.40248C13.527 2.42384 13.5404 2.44519 13.5538 2.46655C13.624 2.58046 13.6908 2.65878 13.6072 2.81896C13.5237 2.97915 13.6808 3.75517 13.6808 3.75517C13.751 4.17165 13.9315 5.26804 13.9315 6.71328C13.9315 7.24368 13.9348 7.37183 13.9348 7.62813C13.9348 7.90934 13.985 8.19412 14.0953 8.45042C14.2056 8.70316 14.3894 8.90962 14.4997 9.16236C14.5599 9.29407 14.6167 9.43646 14.6568 9.5824C14.6869 9.67852 14.6201 9.76751 14.5298 9.75683Z" fill="white"/>
<path d="M11.8825 9.38303C11.8357 9.21572 11.7755 9.05553 11.7053 8.89891C11.5749 8.60345 11.361 8.36139 11.2306 8.06594C11.1003 7.76692 11.0401 7.43587 11.0401 7.10481C11.0401 6.8058 11.0368 6.65629 11.0368 6.03334C11.0368 4.34248 10.8262 3.06099 10.7426 2.57687C10.7426 2.57687 10.5554 1.6727 10.6557 1.48404C10.756 1.29538 10.6758 1.20638 10.5956 1.07467C10.5822 1.04976 10.5655 1.02484 10.5554 0.999921C10.5521 0.989241 10.5488 0.975003 10.5554 0.964324C10.5621 0.953644 10.5722 0.950085 10.5822 0.946525C10.6223 0.925167 10.6691 0.903809 10.6891 0.861092C10.7092 0.818376 10.7025 0.76142 10.6958 0.715144C10.6457 0.412569 9.90698 0.433927 9.75657 0.433927H9.74988C9.59946 0.433927 8.86409 0.412569 8.81061 0.711584C8.80393 0.757861 8.80058 0.811256 8.8173 0.853973C8.83735 0.896689 8.88415 0.918047 8.92426 0.939406C8.93429 0.942965 8.94432 0.950085 8.951 0.957204C8.95769 0.967883 8.95434 0.982122 8.951 0.992801C8.94097 1.02128 8.92426 1.04264 8.91089 1.06755C8.83067 1.20282 8.75045 1.29182 8.85072 1.47692C8.951 1.66559 8.76381 2.56975 8.76381 2.56975C8.68025 3.05743 8.46967 4.33892 8.46967 6.02622C8.46967 6.64561 8.46633 6.79512 8.46633 7.0977C8.46633 7.42875 8.40616 7.7598 8.2758 8.05882C8.14544 8.35427 7.93151 8.59633 7.80115 8.89179C7.73096 9.04842 7.67079 9.2086 7.62399 9.37591C7.59725 9.4649 7.6641 9.55033 7.74767 9.54677C8.35268 9.5183 9.02788 9.5005 9.74988 9.49694C10.4752 9.5005 11.1471 9.5183 11.7521 9.54677C11.8423 9.55745 11.9059 9.46846 11.8825 9.38303Z" fill="white"/>
<defs>
<clipPath id="clip0_901_24314">
<rect width="33.7134" height="17.7762" fill="white" transform="translate(22.1768 4.11133)"/>
</clipPath>
</defs>
</svg>
