<svg width="116" height="114" viewBox="0 0 116 114" fill="none" xmlns="http://www.w3.org/2000/svg">
<path d="M47.3874 27.6035C44.8347 28.0988 42.0396 29.7404 39.8434 33.5898C39.6121 33.994 39.3029 34.349 38.9333 34.6347C38.5638 34.9203 38.1411 35.1309 37.6896 35.2544C37.238 35.3779 36.7663 35.412 36.3015 35.3546C35.8367 35.2972 35.3878 35.1496 34.9805 34.9201C34.5731 34.6905 34.2154 34.3837 33.9276 34.0169C33.6397 33.6502 33.4275 33.2308 33.3031 32.7827C33.1786 32.3345 33.1443 31.8665 33.2021 31.4052C33.2599 30.9439 33.4087 30.4984 33.64 30.0942C36.7845 24.6033 41.2552 21.5818 46.0184 20.6619C50.4503 19.8313 55.0339 20.7476 58.7961 23.2164C62.2472 25.4807 65.0352 29.1814 65.1208 33.6181C65.2135 38.2529 62.3756 42.4348 57.1418 45.5057C53.5909 47.5861 52.2076 49.0013 51.6158 49.9424C51.1166 50.7349 51.0025 51.4567 51.0025 53.07C51.0025 54.0083 50.6269 54.9082 49.9583 55.5717C49.2897 56.2352 48.3829 56.608 47.4373 56.608C46.4918 56.608 45.5849 56.2352 44.9163 55.5717C44.2477 54.9082 43.8721 54.0083 43.8721 53.07C43.8721 51.1453 43.9719 48.7536 45.562 46.2063C47.0594 43.8217 49.6192 41.6989 53.5124 39.4133C57.3272 37.1702 58.0189 35.0404 57.9975 33.7667C57.9618 32.3019 56.985 30.5117 54.8601 29.1177C52.6601 27.6734 49.9819 27.1307 47.3874 27.6035Z" fill="#98252B"/>
<path d="M49.2189 74.298C50.6372 74.298 51.9975 73.7389 53.0004 72.7437C54.0033 71.7484 54.5667 70.3985 54.5667 68.991C54.5667 67.5835 54.0033 66.2337 53.0004 65.2384C51.9975 64.2432 50.6372 63.6841 49.2189 63.6841C47.8006 63.6841 46.4403 64.2432 45.4374 65.2384C44.4345 66.2337 43.8711 67.5835 43.8711 68.991C43.8711 70.3985 44.4345 71.7484 45.4374 72.7437C46.4403 73.7389 47.8006 74.298 49.2189 74.298Z" fill="#98252B"/>
<path d="M47.4371 0.000123322C39.3546 -0.00174799 31.4122 2.09388 24.398 6.07903C17.3838 10.0642 11.5417 15.8003 7.45152 22.7181C3.36129 29.636 1.16513 37.495 1.081 45.5153C0.996862 53.5356 3.02768 61.4383 6.9719 68.4391L1.30321 83.1713C0.831383 84.396 0.711698 85.7266 0.957508 87.0149C1.20332 88.3031 1.80495 89.4982 2.6953 90.4668C3.58565 91.4355 4.72969 92.1397 5.99979 92.5007C7.26989 92.8618 8.6161 92.8656 9.88824 92.5117L27.6216 87.5797C33.9034 90.5252 40.7722 92.0314 47.7198 91.9871C54.6674 91.9427 61.516 90.3489 67.7591 87.3235C74.0023 84.2981 79.4801 79.9185 83.7875 74.5088C88.0948 69.099 91.1215 62.7974 92.6436 56.0702C94.1656 49.343 94.1442 42.3623 92.5808 35.6444C91.0174 28.9265 87.952 22.6434 83.6115 17.2598C79.271 11.8762 73.7663 7.52985 67.5047 4.5423C61.2431 1.55474 54.3848 0.00240944 47.4371 0.000123322ZM8.21972 45.9941C8.22289 37.513 11.0177 29.2651 16.179 22.5053C21.3403 15.7455 28.5854 10.8438 36.8121 8.54607C45.0388 6.24834 53.7967 6.68033 61.7532 9.77632C69.7097 12.8723 76.4294 18.4628 80.8897 25.6972C85.35 32.9316 87.3069 41.4139 86.4625 49.8535C85.6182 58.2931 82.0188 66.228 76.2122 72.4508C70.4055 78.6737 62.7093 82.8438 54.2947 84.3269C45.88 85.8099 37.2076 84.5246 29.5967 80.6664L28.356 80.0296L7.96303 85.6975L14.8724 67.7528L13.9597 66.2668C10.1959 60.1652 8.20907 53.1481 8.21972 45.9941Z" fill="#98252B"/>
<path d="M68.5642 113.216C61.8925 113.223 55.2982 111.798 49.234 109.038C43.1697 106.277 37.7793 102.247 33.4326 97.2243C37.447 98.307 41.654 98.9296 45.9822 99.0429C52.5871 103.672 60.4778 106.152 68.5642 106.14C74.9959 106.14 81.0567 104.605 86.4045 101.894L87.6452 101.258L108.038 106.926L101.129 88.9808L102.042 87.4948C105.678 81.5935 107.782 74.659 107.782 67.2221C107.793 59.3646 105.395 51.6896 100.908 45.2158C100.849 41.0063 100.287 36.8185 99.2322 32.7408C104.166 37.0518 108.116 42.3572 110.82 48.3031C113.524 54.2491 114.919 60.6988 114.912 67.2221C114.912 75.3666 112.773 83.0228 109.022 89.6672L114.698 104.399C115.169 105.623 115.289 106.953 115.043 108.24C114.797 109.528 114.196 110.722 113.307 111.691C112.418 112.659 111.275 113.363 110.006 113.725C108.737 114.087 107.392 114.092 106.12 113.74L88.3797 108.808C82.3687 111.638 75.6447 113.216 68.5571 113.216H68.5642Z" fill="#98252B"/>
</svg>
