<svg width="65" height="27" viewBox="0 0 65 27" fill="none" xmlns="http://www.w3.org/2000/svg">
<path d="M5.72401 9.65693C5.89255 9.64212 6.11562 9.62237 6.14784 9.6199C6.37338 9.60015 6.6014 9.5804 6.82942 9.56312C7.06983 9.54338 7.31272 9.5261 7.55313 9.51129C7.61757 9.50635 7.66962 9.46192 7.68202 9.39774C7.68945 9.36319 7.69689 9.32616 7.70433 9.28913C7.77373 8.99045 7.8803 8.68436 8.02653 8.37581C8.12815 8.15858 8.25206 7.97839 8.35864 7.82288C8.43795 7.70686 8.50735 7.60566 8.54948 7.51679C8.63127 7.34154 8.67341 7.12925 8.67341 6.90462C8.67341 6.77379 8.67341 6.67012 8.67341 6.54916C8.67341 6.38131 8.67589 6.1715 8.67589 5.79629C8.67589 5.49761 8.68333 5.19893 8.69572 4.90025C8.70563 4.68549 8.69571 4.47074 8.66845 4.25598C8.61888 3.88819 8.56932 3.60679 8.53957 3.43647C8.53957 3.43647 8.3636 2.63422 8.45778 2.46636C8.55196 2.30098 8.47761 2.22199 8.40078 2.1035C8.38591 2.08129 8.37351 2.06154 8.3636 2.03686C8.35864 2.02699 8.35616 2.01464 8.3636 2.00477C8.36855 1.99736 8.38094 1.99242 8.38838 1.98749C8.42555 1.97021 8.47265 1.95046 8.49 1.91097C8.50735 1.87147 8.5024 1.82457 8.49496 1.78261C8.44539 1.51849 7.78611 1.53824 7.60518 1.53824C7.46391 1.53824 6.76497 1.51849 6.7154 1.78261C6.70797 1.82457 6.70302 1.87147 6.72037 1.91097C6.73772 1.95046 6.78482 1.97021 6.82199 1.98749C6.83191 1.99242 6.84181 1.99489 6.84677 2.00477C6.85173 2.01464 6.84677 2.02699 6.84677 2.03686C6.83686 2.06154 6.82198 2.08129 6.80959 2.1035C6.73276 2.22199 6.65593 2.30098 6.75259 2.46636C6.84925 2.63175 6.67079 3.43647 6.67079 3.43647C6.59148 3.86844 6.39321 5.00392 6.39321 6.50226C6.39321 7.05272 6.39072 7.18355 6.39072 7.45014C6.39072 7.74389 6.33621 8.03516 6.21228 8.30176C6.09084 8.56341 5.8876 8.77816 5.76368 9.03982C5.69924 9.17805 5.63479 9.32369 5.59018 9.47426C5.56292 9.56806 5.63728 9.6594 5.73394 9.65199L5.72401 9.65693Z" fill="white"/>
<path d="M21.6929 12.466C21.6929 11.0639 16.9614 10.3011 11.0131 10.3011C5.06476 10.3011 0.333328 11.0639 0.333328 12.466C0.333328 13.2707 1.98647 14.1519 4.54922 14.5938C4.54922 14.5938 3.78586 25.2031 3.78338 25.2624C3.77594 25.5191 4.51454 26.0276 11.0131 26.0276C17.5117 26.0276 18.2527 25.5191 18.2428 25.2624C18.2428 25.2031 17.477 14.5938 17.477 14.5938C20.0372 14.1544 21.6929 13.2707 21.6929 12.466V12.466Z" fill="white"/>
<path d="M16.3022 9.65693C16.1336 9.64212 15.9105 9.62237 15.8783 9.6199C15.6528 9.60015 15.4248 9.5804 15.1967 9.56312C14.9563 9.54338 14.7135 9.5261 14.4731 9.51129C14.4086 9.50635 14.3566 9.46192 14.3442 9.39774C14.3367 9.36319 14.3293 9.32616 14.3219 9.28913C14.2525 8.99045 14.1459 8.68436 13.9997 8.37581C13.898 8.15858 13.7741 7.97839 13.6675 7.82288C13.5882 7.70686 13.5188 7.60566 13.4767 7.51679C13.3949 7.34154 13.3528 7.12925 13.3528 6.90462C13.3528 6.77379 13.3528 6.67012 13.3528 6.54916C13.3528 6.38131 13.3503 6.1715 13.3503 5.79629C13.3503 5.49761 13.3429 5.19893 13.3305 4.90025C13.3206 4.68549 13.3305 4.47074 13.3577 4.25598C13.4073 3.88819 13.4569 3.60679 13.4866 3.43647C13.4866 3.43647 13.6626 2.63422 13.5684 2.46636C13.4742 2.30098 13.5486 2.22199 13.6254 2.1035C13.6403 2.08129 13.6527 2.06154 13.6626 2.03686C13.6675 2.02699 13.67 2.01464 13.6626 2.00477C13.6576 1.99736 13.6452 1.99242 13.6378 1.98749C13.6006 1.97021 13.5535 1.95046 13.5362 1.91097C13.5188 1.87147 13.5238 1.82457 13.5312 1.78261C13.5808 1.51849 14.2401 1.53824 14.421 1.53824C14.5623 1.53824 15.2612 1.51849 15.3108 1.78261C15.3182 1.82457 15.3232 1.87147 15.3058 1.91097C15.2885 1.95046 15.2414 1.97021 15.2042 1.98749C15.1943 1.99242 15.1844 1.99489 15.1794 2.00477C15.1745 2.01464 15.1794 2.02699 15.1794 2.03686C15.1893 2.06154 15.2042 2.08129 15.2166 2.1035C15.2934 2.22199 15.3703 2.30098 15.2736 2.46636C15.1769 2.63175 15.3554 3.43647 15.3554 3.43647C15.4347 3.86844 15.633 5.00392 15.633 6.50226C15.633 7.05272 15.6354 7.18355 15.6354 7.45014C15.6354 7.74389 15.69 8.03516 15.8139 8.30176C15.9354 8.56341 16.1386 8.77816 16.2625 9.03982C16.3269 9.17805 16.3914 9.32369 16.436 9.47426C16.4632 9.56806 16.3889 9.6594 16.2922 9.65199L16.3022 9.65693Z" fill="white"/>
<path d="M13.3701 9.26933C13.3181 9.09901 13.2512 8.93116 13.1743 8.76824C13.0306 8.46216 12.7926 8.21284 12.6489 7.90429C12.5051 7.59327 12.4382 7.25015 12.4382 6.90951C12.4382 6.59848 12.4333 6.44298 12.4333 5.80118C12.4333 4.05106 12.2003 2.72304 12.1086 2.21948C12.1086 2.21948 11.9029 1.28147 12.0119 1.08646C12.1234 0.891457 12.0342 0.800124 11.945 0.661892C11.9301 0.637207 11.9128 0.612521 11.9004 0.5829C11.8954 0.570558 11.8905 0.555748 11.9004 0.545875C11.9078 0.536001 11.9202 0.531067 11.9301 0.52613C11.9723 0.506383 12.0268 0.484163 12.0491 0.437263C12.0714 0.390362 12.064 0.33606 12.0565 0.286692C11.9995 -0.0218631 11.1816 0.000351957 11.018 0.000351957C11.018 0.000351957 11.018 0.000351957 11.0156 0.000351957C11.0156 0.000351957 11.0156 0.000351957 11.0131 0.000351957C10.8471 0.000351957 10.0316 -0.0218631 9.97461 0.286692C9.9647 0.333592 9.95975 0.390362 9.98205 0.437263C10.0019 0.484163 10.0564 0.503915 10.101 0.52613C10.1109 0.531067 10.1233 0.536001 10.1308 0.545875C10.1382 0.558217 10.1332 0.573026 10.1308 0.5829C10.1208 0.610053 10.1035 0.637207 10.0861 0.661892C9.99692 0.800124 9.90769 0.891457 10.0192 1.08646C10.1308 1.28147 9.92256 2.21948 9.92256 2.21948C9.83086 2.72304 9.59788 4.05106 9.59788 5.80118C9.59788 6.44298 9.59293 6.59848 9.59293 6.90951C9.59293 7.25015 9.52848 7.59327 9.38225 7.90429C9.2385 8.21037 9.00305 8.45969 8.85682 8.76824C8.77998 8.93116 8.71307 9.09901 8.66102 9.26933C8.63376 9.36067 8.70316 9.44953 8.79982 9.44706C9.47148 9.41744 10.2175 9.40017 11.018 9.3977C11.8211 9.3977 12.5671 9.41991 13.2363 9.44706C13.3305 9.452 13.4023 9.36067 13.3751 9.26933H13.3701Z" fill="white"/>
<path d="M35.3661 10.8985C35.4256 11.4391 35.6487 12.4808 35.6487 12.6215C35.6487 12.8412 35.3463 12.8831 35.1455 12.7005C34.4813 12.0587 33.1132 10.9182 32.3077 10.9182H31.8566C31.8566 10.9182 31.8442 10.9232 31.8442 10.9306V15.4478C31.8442 16.8499 32.0053 19.4961 32.7687 20.0564C32.9694 20.2169 32.9893 20.5575 32.5481 20.5575H28.3223C27.9009 20.5575 27.901 20.2169 28.1017 20.0564C28.8651 19.4961 29.0262 16.8499 29.0262 15.4478V10.9306C29.0262 10.9306 29.0212 10.9182 29.0138 10.9182H28.5627C27.7572 10.9182 26.3891 12.0611 25.7248 12.7005C25.5439 12.8807 25.2217 12.8412 25.2217 12.6215C25.2217 12.4808 25.4423 11.4391 25.5043 10.8985C25.5439 10.5184 25.6654 10.3579 26.0471 10.3579H34.8184C35.2001 10.3579 35.3215 10.5184 35.3612 10.8985H35.3661Z" fill="white"/>
<path d="M41.0592 20.5551H39.007C38.0032 20.5551 37.567 19.7331 37.505 19.6096C37.5026 19.6022 37.4927 19.6022 37.4877 19.6096C37.0441 20.1823 36.3253 20.5575 35.5272 20.5575C34.1789 20.5575 33.0735 19.4961 33.0735 18.1928C33.0735 16.8894 34.1789 15.828 35.5272 15.828C36.3203 15.828 37.0341 16.1983 37.4803 16.7635C37.4877 16.7709 37.5001 16.7685 37.5001 16.7561V16.1884C37.5001 15.0258 37.0564 13.7027 36.3327 13.7027C36.0304 13.7027 36.0304 14.184 36.2733 14.7049C36.6946 15.6873 33.6783 16.0872 33.6783 14.9245C33.6783 14.0631 34.6845 13.1423 36.536 13.1423C38.6898 13.1423 40.3181 14.6259 40.3181 16.7882V18.4322C40.3181 19.1727 40.4396 19.6146 41.1435 20.1354C41.3442 20.2959 41.2847 20.5551 41.0641 20.5551H41.0592ZM37.4183 18.1903C37.4183 17.4893 36.9746 16.9067 36.412 16.9067C35.8494 16.9067 35.4256 17.4868 35.4256 18.1903C35.4256 18.8938 35.8692 19.4739 36.412 19.4739C36.9548 19.4739 37.4183 18.8938 37.4183 18.1903Z" fill="white"/>
<path d="M55.6574 15.4454C55.6574 18.2495 53.1219 20.555 50.0238 20.555H45.798C45.5973 20.555 45.5155 20.2934 45.7187 20.1354C46.4226 19.6145 46.544 19.1727 46.544 18.4322V12.461C46.544 11.7402 46.4226 11.2786 45.7187 10.7578C45.518 10.5973 45.5973 10.3579 45.798 10.3579H50.0238C53.1219 10.3579 55.6574 12.6412 55.6574 15.4478V15.4454ZM52.5395 15.4454C52.5395 13.0065 51.4366 11.0861 49.6149 10.9182C49.6074 10.9182 49.6025 10.9207 49.6025 10.9281C49.4414 12.2586 49.144 15.7317 49.6223 19.9626C49.6223 19.97 49.6297 19.9749 49.6347 19.9725C51.4589 19.8046 52.5395 17.8842 52.5395 15.4454V15.4454Z" fill="white"/>
<path d="M64.047 20.5551H61.9949C60.9911 20.5551 60.5549 19.7331 60.4929 19.6096C60.4904 19.6022 60.4805 19.6022 60.4756 19.6096C60.0319 20.1823 59.3132 20.5575 58.5151 20.5575C57.1668 20.5575 56.0614 19.4961 56.0614 18.1928C56.0614 16.8894 57.1668 15.828 58.5151 15.828C59.3082 15.828 60.022 16.1983 60.4681 16.7635C60.4756 16.7709 60.488 16.7685 60.488 16.7561V16.1884C60.488 15.0258 60.0443 13.7027 59.3206 13.7027C59.0182 13.7027 59.0182 14.184 59.2611 14.7049C59.6825 15.6873 56.6662 16.0872 56.6662 14.9245C56.6662 14.0631 57.6724 13.1423 59.5238 13.1423C61.6776 13.1423 63.306 14.6259 63.306 16.7882V18.4322C63.306 19.1727 63.4274 19.6146 64.1313 20.1354C64.3321 20.2959 64.2726 20.5551 64.052 20.5551H64.047ZM60.4062 18.1903C60.4062 17.4893 59.9625 16.9067 59.3999 16.9067C58.8373 16.9067 58.4135 17.4868 58.4135 18.1903C58.4135 18.8938 58.8571 19.4739 59.3999 19.4739C59.9427 19.4739 60.4062 18.8938 60.4062 18.1903Z" fill="white"/>
<path d="M43.4435 17.8299C43.5426 16.8055 44.3605 15.9909 45.3891 15.8922C45.404 15.8922 45.404 15.8724 45.3891 15.8724C44.3605 15.7737 43.5426 14.9591 43.4435 13.9347C43.4435 13.9199 43.4236 13.9199 43.4236 13.9347C43.3245 14.9591 42.5066 15.7737 41.478 15.8724C41.4632 15.8724 41.4632 15.8922 41.478 15.8922C42.5066 15.9909 43.3245 16.8055 43.4236 17.8299C43.4236 17.8447 43.4435 17.8447 43.4435 17.8299Z" fill="white"/>
<g clip-path="url(#clip0_101_1002)">
<path d="M31.841 23.611H33.1119C34.0544 23.611 34.6978 24.1953 34.6978 25.069C34.6978 25.9428 34.0544 26.5271 33.1119 26.5271H31.841V23.611ZM33.088 26.0676C33.7367 26.0676 34.155 25.6719 34.155 25.069C34.155 24.4662 33.7341 24.0704 33.088 24.0704H32.3811V26.0703H33.088V26.0676Z" fill="white"/>
<path d="M38.116 26.0731V26.5272H35.9343V23.6111H38.0577V24.0652H36.4744V24.8222H37.8777V25.2683H36.4744V26.0731H38.116Z" fill="white"/>
<path d="M39.3816 23.6111H39.9217V26.0678H41.4415V26.5272H39.3816V23.6111V23.6111Z" fill="white"/>
<path d="M42.5324 23.6111H43.0725V26.5272H42.5324V23.6111Z" fill="white"/>
<path d="M47.1579 23.6111L45.8923 26.5272H45.3601L44.0892 23.6111H44.6743L45.6434 25.8606L46.6178 23.6111H47.1579Z" fill="white"/>
<path d="M50.3087 26.0731V26.5272H48.127V23.6111H50.2504V24.0652H48.6671V24.8222H50.0704V25.2683H48.6671V26.0731H50.3087Z" fill="white"/>
<path d="M53.4753 26.5272L52.8822 25.672C52.8451 25.6774 52.8081 25.6774 52.771 25.6774H52.1144V26.5272H51.5742V23.6111H52.771C53.5362 23.6111 54.0075 24.0015 54.0075 24.6495C54.0075 25.0904 53.7824 25.4171 53.3879 25.5711L54.0578 26.5299H53.4753V26.5272ZM52.7445 24.0706H52.1144V25.2312H52.7445C53.2185 25.2312 53.4621 25.0134 53.4621 24.6469C53.4621 24.2804 53.2185 24.0679 52.7445 24.0679V24.0706Z" fill="white"/>
<path d="M56.4857 25.4994V26.5272H55.9456V25.5074L54.8044 23.6111H55.3816L56.2342 25.032L57.0947 23.6111H57.6269L56.4884 25.4994H56.4857Z" fill="white"/>
</g>
<defs>
<clipPath id="clip0_101_1002">
<rect width="25.7833" height="2.91615" fill="white" transform="translate(31.841 23.611)"/>
</clipPath>
</defs>
</svg>
